<svg xmlns="http://www.w3.org/2000/svg" viewBox="0 0 571.565 571.565" height="100"><g fill="#FFF0F5"><path d="M494.646 318.105l-174.705 67.1-7.034-76.616 132.779-86.953-135.35 58.978-8.247-89.814 78.881-81.074-80.368 64.899-14.036-152.841-14.003 152.467-79.905-64.525 78.427 80.609-8.271 90.071-134.873-58.77 132.315 86.646-7.047 76.739-174.228-66.916 169.185 121.816-12.09 131.644h100.98l-12.059-131.311zM109.735 441.371c2.295.024 4.621.01 6.891-.346.226-.192.263-1.407.315-1.683.903-4.835 1.802-9.667 2.705-14.499-7.528 5.566-15.052 11.133-22.58 16.702 3.994-.991 8.605-.21 12.669-.174zm25.536-27.904l-6.763 4.954c-1.255.918-4.859 2.583-5.144 4.224-1.049 6.034-2.096 12.071-3.146 18.108 1.554-.021 10.673-.312 10.949-2.065.422-2.665.848-5.327 1.27-7.992.609-3.819 1.221-7.635 1.845-11.454.122-.757 1.453-5.166.989-5.775z"/><path d="M147.201 421.873c1.071-6.401 2.13-12.803 3.186-19.208-3.103 2.16-6.206 4.321-9.275 6.533-2.261 1.628-1.9 3.091-2.313 5.879a4113.136 4113.136 0 0 1-3.452 22.846c2.837-1.037 9.504-2.378 10.113-5.812.609-3.408 1.169-6.823 1.741-10.238zm7.069-22.179c-.97.7-1.062 6.321-1.243 7.451-1.267 7.857-2.53 15.719-3.797 23.577 11.594-8.562 18.302-23.256 13.929-37.451-2.962 2.145-5.927 4.284-8.889 6.423zM102.375 420.3c-.279-.021-1.46-.306-1.708-.138-.939 2.103-1.561 4.343-2.139 6.563-1.025 3.933-1.484 8.587-3.482 12.183l22.029-17.421c-4.899-.394-9.798-.793-14.7-1.187zm29.777-10.912c-.465-.608-5.074-.48-5.833-.56a2820.65 2820.65 0 0 1-11.539-1.221c-2.684-.288-5.364-.575-8.048-.866-1.763-.189-4.431 8.531-4.859 10.027 6.099.569 12.2 1.139 18.299 1.705 1.658.155 4.208-2.889 5.422-3.859 2.189-1.737 4.373-3.482 6.558-5.226zm-23.583-6.478c7.653.869 15.306 1.741 22.953 2.649 2.797.334 4.119 1.062 6.282-.691 2.938-2.381 5.832-4.813 8.733-7.243a8880.835 8880.835 0 0 0-19.373-1.955c-3.446-.343-6.891-.694-10.337-1-3.475-.31-6.514 5.773-8.258 8.24zm10.578-11.514c7.917.835 15.833 1.674 23.749 2.509 1.138.119 6.585 1.506 7.518.753 2.843-2.301 5.683-4.6 8.525-6.897-12.555-7.939-28.488-5.31-39.792 3.635zM17.491 356.637c3.957 1.12 7.577 4.082 11.086 6.129 1.98 1.157 4.006 2.299 6.157 3.115.294-.055.924-1.093 1.108-1.307 3.179-3.751 6.358-7.5 9.538-11.248a81782.51 81782.51 0 0 1-27.889 3.311zm43.379-.921c.48-.594 3.822-3.764 3.721-4.525-2.775.314-5.554.633-8.329.948-1.545.175-5.502-.165-6.561 1.117-3.905 4.721-7.806 9.442-11.711 14.167 1.362.753 9.425 5.019 10.533 3.636l5.067-6.312c2.423-3.013 4.847-6.023 7.28-9.031zm22.203-6.411c-3.767.34-7.534.674-11.292 1.074-2.769.294-3.182 1.741-4.923 3.96-4.752 6.062-9.538 12.096-14.324 18.13 2.977.509 9.434 2.647 11.665-.03 2.215-2.659 4.397-5.349 6.588-8.029 4.1-5.031 8.194-10.068 12.286-15.105zm4.844-.655c-1.19.128-4.055 4.963-4.774 5.856-4.997 6.196-9.991 12.396-14.985 18.593 14.312-1.689 27.424-11.123 30.665-25.618-3.635.392-7.271.781-10.906 1.169zm-55.282-7.831c-.232-.156-1.114-.991-1.414-.964-1.857 1.358-3.507 2.999-5.11 4.64-2.839 2.906-5.548 6.723-9.063 8.853 9.256-1.405 18.51-2.807 27.766-4.208-4.058-2.776-8.119-5.548-12.179-8.321zm22.984 6.579c2.76-.432 5.523-.859 8.283-1.291-.101-.762-4.167-2.932-4.786-3.378-3.143-2.253-6.279-4.517-9.416-6.781a5215.7 5215.7 0 0 1-6.561-4.743c-1.435-1.037-8.078 5.214-9.192 6.301l15.049 10.554c1.365.955 5.087-.422 6.623-.662zm15.431-2.417c3.73-.612 7.451-1.285 11.172-1.962a8911.423 8911.423 0 0 0-15.854-11.304c-2.821-2.004-5.64-4.018-8.482-5.994-2.861-1.989-8.516 1.787-11.255 3.062 6.215 4.551 12.43 9.098 18.617 13.682 2.271 1.678 3.054 2.966 5.802 2.516zm26.843-4.378c-6.971-13.118-22.112-18.733-36.362-16.57 6.46 4.651 12.919 9.303 19.382 13.954.93.67 4.972 4.571 6.157 4.379 3.607-.589 7.215-1.177 10.823-1.763zm13.662-62.74c.062-.19.453-.958.376-1.154-1.294-.995-2.739-1.793-4.177-2.561-2.543-1.359-5.683-2.442-7.831-4.416 2.794 6.028 5.587 12.056 8.384 18.084 1.082-3.319 2.165-6.636 3.248-9.953zm2.613 22.354c.496-.221 1.169-3.421 1.35-3.933.912-2.589 1.827-5.177 2.748-7.763l1.928-5.411c.422-1.184-5.156-4.467-6.117-5.009-1.398 4.116-2.8 8.234-4.201 12.35-.383 1.12 1.297 3.382 1.769 4.382.837 1.794 1.682 3.587 2.523 5.384zm12.69-8.149c.787-2.345-2.907-5.447-4.324-7.06a3112.891 3112.891 0 0 1-5.621 15.404c-.692 1.876-1.414 2.665-.56 4.449a488.17 488.17 0 0 0 3.556 7.225c1.521-4.348 3.039-8.696 4.55-13.048.808-2.319 1.619-4.639 2.399-6.97zm-2.185 30.214c7.552-7.356 8.373-18.788 4.064-28.066l-5.655 15.977c-.272.765-2.127 4.296-1.763 5.064 1.118 2.341 2.238 4.681 3.354 7.025zM95.796 279.46c-.395 1.579-.771 3.188-.9 4.816.095.19.927.413 1.111.496 3.188 1.42 6.374 2.843 9.562 4.263l-7.793-18.345c.016 2.917-1.282 5.974-1.98 8.77zm3.617 17.436c2.534 1.053 5.071 2.105 7.601 3.164.502.208 3.326 1.857 3.825 1.634l-2.304-5.486c-.428-1.02-.979-3.779-2.065-4.247-3.993-1.721-7.987-3.443-11.98-5.162-.242 1.076-1.545 7.417-.382 7.897 1.768.735 3.537 1.466 5.305 2.2zm-3.127 8.755c2.252.982 4.517 1.934 6.781 2.892 4.241 1.796 8.485 3.586 12.732 5.37-.979-2.5-1.955-4.997-2.974-7.481-.753-1.827-1.821-1.824-3.678-2.567a3155.902 3155.902 0 0 1-15.199-6.157c.245 2.132.068 6.955 2.338 7.943zm23.883 18.629l-2.965-7.197c-.324-.786-4.189-1.774-4.939-2.09-5.217-2.173-10.432-4.342-15.646-6.515 4 9.419 13.03 16.475 23.55 15.802zm-57.2-58.945c.061-.189.453-.958.376-1.153-1.294-.995-2.739-1.793-4.177-2.562-2.542-1.358-5.682-2.442-7.831-4.416 2.794 6.028 5.588 12.057 8.385 18.084 1.083-3.318 2.167-6.632 3.247-9.953zm.089 16.968c.841 1.796 1.686 3.592 2.527 5.386.496-.221 1.169-3.422 1.35-3.933.912-2.589 1.827-5.178 2.748-7.763l1.928-5.41c.422-1.184-5.156-4.468-6.117-5.009-1.398 4.116-2.8 8.234-4.201 12.35-.384 1.118 1.296 3.382 1.765 4.379zm4.712 10.034a493.087 493.087 0 0 0 3.556 7.225c1.521-4.348 3.039-8.696 4.55-13.048.805-2.322 1.619-4.642 2.399-6.971.786-2.344-2.907-5.447-4.324-7.059a3049.831 3049.831 0 0 1-5.622 15.404c-.691 1.876-1.413 2.665-.559 4.449zm12.38-10.649l-5.655 15.976c-.272.766-2.126 4.297-1.763 5.064 1.117 2.341 2.237 4.682 3.354 7.022 7.556-7.352 8.376-18.783 4.064-28.062zm-23.167-5.18c-2.598-6.114-5.196-12.231-7.797-18.345.021 2.919-1.276 5.973-1.974 8.773-.395 1.579-.771 3.188-.9 4.816.095.189.927.413 1.111.496 3.186 1.417 6.372 2.836 9.56 4.26zm-6.153 7.861c2.534 1.053 5.07 2.106 7.601 3.165.502.207 3.326 1.857 3.825 1.634l-2.304-5.487c-.429-1.019-.982-3.779-2.065-4.247-3.994-1.72-7.987-3.443-11.98-5.163-.242 1.077-1.545 7.417-.383 7.898 1.768.734 3.537 1.465 5.306 2.2zm9.731 6.971a3114.73 3114.73 0 0 1-15.199-6.157c.248 2.13.07 6.952 2.338 7.94 2.252.982 4.517 1.934 6.781 2.892 4.241 1.797 8.486 3.587 12.733 5.371-.979-2.5-1.956-4.997-2.974-7.481-.754-1.829-1.825-1.822-3.679-2.565zm11.024 20.416l-2.965-7.197c-.325-.786-4.189-1.774-4.939-2.09-5.217-2.173-10.432-4.342-15.646-6.515 3.997 9.415 13.03 16.472 23.55 15.802zm167.272-97.18c.061-.189.453-.958.376-1.153-1.294-.995-2.739-1.793-4.177-2.562-2.543-1.358-5.683-2.442-7.831-4.416 2.793 6.028 5.59 12.057 8.384 18.084 1.085-3.319 2.168-6.635 3.248-9.953zm2.522.239l-4.201 12.35c-.383 1.12 1.297 3.381 1.766 4.382.841 1.796 1.686 3.593 2.527 5.386.496-.22 1.169-3.421 1.35-3.932.912-2.589 1.827-5.177 2.748-7.763l1.928-5.41c.424-1.188-5.157-4.472-6.118-5.013zm2.84 22.313c-.692 1.876-1.414 2.666-.56 4.449 1.16 2.42 2.359 4.823 3.556 7.225 1.521-4.348 3.039-8.696 4.55-13.048.805-2.322 1.619-4.642 2.399-6.971.787-2.344-2.907-5.447-4.324-7.059-1.864 5.138-3.727 10.276-5.621 15.404zm4.406 14.841l3.354 7.023c7.552-7.353 8.373-18.789 4.064-28.066l-5.655 15.977c-.276.77-2.13 4.302-1.763 5.066zm-25.523-35.795c-.395 1.579-.771 3.188-.9 4.816.095.189.927.413 1.111.496 3.188 1.42 6.374 2.843 9.562 4.263l-7.793-18.345c.015 2.916-1.283 5.973-1.98 8.77zm3.616 17.435c2.534 1.053 5.071 2.105 7.601 3.164.502.208 3.326 1.857 3.825 1.634l-2.304-5.487c-.428-1.019-.979-3.779-2.065-4.247l-11.98-5.163c-.242 1.077-1.545 7.417-.386 7.898 1.772.736 3.541 1.467 5.309 2.201zm-3.13 8.755c2.252.982 4.517 1.934 6.781 2.892 4.241 1.796 8.485 3.586 12.732 5.37-.979-2.5-1.955-4.997-2.974-7.481-.753-1.827-1.821-1.824-3.678-2.567a3056.176 3056.176 0 0 1-15.199-6.157c.248 2.132.071 6.955 2.338 7.943zm23.887 18.633l-2.965-7.197c-.324-.787-4.189-1.775-4.939-2.09l-15.649-6.515c3.999 9.415 13.029 16.472 23.553 15.802zm-59.438-65.35c.061-.189.453-.958.376-1.153-1.294-.995-2.739-1.793-4.177-2.562-2.542-1.358-5.682-2.442-7.831-4.416l8.385 18.084c1.081-3.319 2.164-6.633 3.247-9.953zm2.613 22.356c.499-.22 1.169-3.421 1.349-3.932.912-2.589 1.827-5.177 2.748-7.763l1.928-5.41c.422-1.184-5.156-4.467-6.117-5.009-1.402 4.116-2.8 8.234-4.202 12.351-.382 1.12 1.297 3.381 1.766 4.382a3035.35 3035.35 0 0 1 2.528 5.381zm12.69-8.149c.787-2.344-2.907-5.447-4.324-7.059a3049.697 3049.697 0 0 1-5.621 15.404c-.691 1.876-1.414 2.666-.56 4.449 1.16 2.42 2.359 4.823 3.556 7.225 1.521-4.348 3.039-8.696 4.55-13.048.808-2.322 1.619-4.641 2.399-6.971zm-2.185 30.212c7.552-7.353 8.372-18.788 4.063-28.066l-5.655 15.976c-.272.765-2.126 4.296-1.763 5.064 1.118 2.344 2.238 4.685 3.355 7.026zm-28.877-42.821c-.395 1.579-.771 3.188-.899 4.816.095.189.927.413 1.111.496 3.188 1.42 6.374 2.843 9.562 4.263l-7.794-18.345c.015 2.916-1.282 5.973-1.98 8.77zm3.617 17.435c2.534 1.053 5.07 2.105 7.601 3.164.501.208 3.326 1.857 3.825 1.634l-2.304-5.487c-.428-1.019-.979-3.779-2.065-4.247-3.993-1.72-7.986-3.443-11.98-5.163-.242 1.077-1.545 7.418-.385 7.898l5.308 2.201zm-3.127 8.755c2.252.982 4.517 1.934 6.781 2.892a4620.39 4620.39 0 0 0 12.733 5.37c-.979-2.5-1.956-4.997-2.974-7.481-.75-1.827-1.821-1.824-3.678-2.567a3017.55 3017.55 0 0 1-15.199-6.157c.243 2.132.069 6.955 2.337 7.943zm23.883 18.632l-2.965-7.197c-.324-.786-4.189-1.775-4.938-2.09-5.217-2.173-10.432-4.342-15.646-6.515 3.999 9.416 13.028 16.472 23.549 15.802zm-24.878 47.216c-2.512-2.164-5.762-4.174-7.677-6.928 1.619 7.469 3.234 14.936 4.853 22.405 2.05-3.452 4.101-6.9 6.15-10.349.116-.196.75-.958.713-1.2-1.199-1.446-2.619-2.707-4.039-3.928zm6.096 6.029l-7.825 12.8c-.709 1.159.606 4.122.878 5.361l1.478 6.68c.612-.122 2.172-3.544 2.503-4.073 1.674-2.677 3.354-5.349 5.037-8.017 1.175-1.863 2.35-3.728 3.525-5.588.778-1.224-4.654-6.313-5.596-7.163zm-2.436 25.755c-1.251 1.931-2.258 2.635-1.747 4.85.688 3.009 1.432 6.004 2.169 9.003 2.803-4.495 5.603-8.993 8.394-13.494 1.49-2.402 2.984-4.802 4.449-7.216 1.475-2.433-1.891-6.846-3.072-9.012-3.391 5.294-6.778 10.591-10.193 15.869zm1.202 17.764c.664 2.909 1.331 5.816 1.995 8.727 10.328-6.35 14.128-18.975 11.631-30.472-3.458 5.502-6.916 11.004-10.371 16.506-.501.79-3.472 4.287-3.255 5.239zm-19.62-46.599c-.841 1.674-1.667 3.382-2.225 5.178.061.236.937.698 1.12.836l9.654 7.19c-1.374-7.519-2.751-15.033-4.125-22.549-.71 3.278-2.937 6.381-4.424 9.345zm-5.735 16.671c1.802 1.268 3.602 2.534 5.401 3.804 2.58 1.818 5.159 3.639 7.732 5.466.508.36 3.265 2.922 3.88 2.797l-1.203-6.735c-.224-1.252-.147-4.489-1.249-5.288l-12.142-8.812c-.54 1.149-3.603 7.936-2.419 8.768zm-.315 12.84c2.28 1.668 4.584 3.309 6.879 4.954 4.309 3.085 8.62 6.16 12.935 9.235a573.755 573.755 0 0 0-1.454-9.144c-.383-2.239-1.585-2.503-3.479-3.807a3317.988 3317.988 0 0 1-15.505-10.737c-.26 2.452-1.674 7.819.624 9.499zm15.578 14.514c-5.306-3.751-10.612-7.503-15.918-11.251 2.114 11.572 10.471 21.769 22.445 23.663l-1.515-8.822c-.161-.964-4.249-3.048-5.012-3.59zm57.482-34.633c-2.812-2.424-6.45-4.673-8.592-7.757 1.812 8.362 3.62 16.723 5.432 25.083 2.295-3.862 4.59-7.724 6.885-11.589.132-.22.838-1.074.799-1.343-1.344-1.616-2.932-3.026-4.524-4.394zm6.825 6.747c-2.919 4.777-5.842 9.554-8.761 14.33-.796 1.298.676 4.614.985 6.001.551 2.494 1.105 4.987 1.656 7.481.686-.138 2.433-3.969 2.803-4.56a4841.011 4841.011 0 0 1 9.588-15.233c.867-1.367-5.216-7.064-6.271-8.019zm-2.727 28.838c-1.398 2.163-2.528 2.949-1.958 5.432.771 3.369 1.604 6.723 2.43 10.079 3.137-5.033 6.273-10.07 9.397-15.11 1.667-2.689 3.341-5.373 4.981-8.081 1.649-2.724-2.118-7.665-3.439-10.089-3.792 5.93-7.586 11.86-11.411 17.769zm1.35 19.89c.743 3.256 1.487 6.515 2.233 9.771 11.564-7.108 15.817-21.245 13.021-34.115l-11.613 18.479c-.557.883-3.886 4.797-3.641 5.865zm-21.972-52.173c-.942 1.873-1.866 3.788-2.491 5.796.067.266 1.05.78 1.255.933l10.811 8.055c-1.539-8.415-3.078-16.83-4.621-25.248-.795 3.671-3.286 7.146-4.954 10.464zm-6.419 18.666c2.017 1.42 4.033 2.837 6.05 4.26 2.889 2.034 5.777 4.072 8.657 6.12.569.403 3.654 3.271 4.342 3.133-.447-2.512-.896-5.027-1.347-7.543-.251-1.398-.165-5.027-1.398-5.921-4.532-3.289-9.063-6.576-13.592-9.865-.607 1.287-4.037 8.885-2.712 9.816zm-.352 14.376c2.552 1.869 5.131 3.706 7.702 5.548 4.823 3.451 9.651 6.897 14.483 10.34-.523-3.415-1.047-6.833-1.628-10.239-.429-2.509-1.775-2.803-3.896-4.263a3747.875 3747.875 0 0 1-17.359-12.022c-.29 2.747-1.872 8.757.698 10.636zm17.442 16.248c-5.939-4.201-11.882-8.399-17.821-12.598 2.368 12.956 11.723 24.37 25.132 26.493-.566-3.292-1.132-6.585-1.695-9.877-.188-1.077-4.763-3.412-5.616-4.018zm34.685-239.466c.049-.153.367-.774.306-.934-1.047-.805-2.212-1.45-3.375-2.068-2.056-1.099-4.59-1.974-6.328-3.568 2.258 4.872 4.517 9.74 6.775 14.611.875-2.68 1.747-5.357 2.622-8.041zm2.114 18.063c.401-.177.946-2.766 1.09-3.179a2217.31 2217.31 0 0 1 2.221-6.273c.517-1.459 1.038-2.917 1.558-4.373.343-.958-4.165-3.611-4.942-4.048-1.132 3.326-2.261 6.652-3.394 9.979-.309.902 1.05 2.732 1.429 3.54.677 1.453 1.356 2.904 2.038 4.354zm10.255-6.582c.636-1.894-2.35-4.403-3.495-5.704a2202.966 2202.966 0 0 1-4.544 12.448c-.56 1.518-1.142 2.154-.453 3.596.937 1.955 1.906 3.896 2.874 5.835a4890.03 4890.03 0 0 0 3.678-10.542c.651-1.879 1.309-3.751 1.94-5.633zm-1.769 24.413c6.102-5.942 6.766-15.184 3.284-22.678-1.524 4.303-3.048 8.608-4.569 12.91-.22.618-1.72 3.473-1.423 4.091l2.708 5.677zm-23.332-34.603c-.318 1.276-.625 2.577-.729 3.893.077.153.75.333.896.401 2.577 1.147 5.15 2.295 7.727 3.445l-6.297-14.823c.015 2.354-1.032 4.823-1.597 7.084zm2.925 14.088c2.047.851 4.097 1.702 6.141 2.558.404.168 2.687 1.5 3.091 1.322-.621-1.478-1.242-2.956-1.86-4.434-.346-.823-.793-3.054-1.671-3.434l-9.679-4.17c-.196.869-1.249 5.994-.309 6.383 1.425.591 2.855 1.185 4.287 1.775zm-2.531 7.075c1.821.792 3.65 1.563 5.478 2.338 3.427 1.45 6.857 2.898 10.288 4.339-.79-2.02-1.579-4.039-2.405-6.043-.606-1.478-1.472-1.472-2.971-2.075a2114.41 2114.41 0 0 1-12.28-4.976c.201 1.723.057 5.618 1.89 6.417zm19.299 15.055l-2.396-5.814c-.26-.637-3.384-1.435-3.99-1.689-4.213-1.756-8.43-3.51-12.644-5.263 3.232 7.607 10.53 13.308 19.03 12.766zM263.038 0c1.355 2.922 2.708 5.845 4.063 8.764.523-1.609 1.05-3.216 1.573-4.822.03-.092.22-.465.184-.56-.627-.484-1.328-.869-2.023-1.243-1.233-.655-2.754-1.181-3.797-2.139zm6.86 4.058c-.679 1.995-1.358 3.99-2.035 5.985-.184.542.63 1.64.857 2.124l1.224 2.61c.242-.107.566-1.658.655-1.906.441-1.254.888-2.509 1.332-3.761.309-.875.621-1.75.933-2.625.204-.573-2.501-2.168-2.966-2.427zm6.197 6.768c.382-1.135-1.411-2.641-2.096-3.421-.903 2.491-1.809 4.981-2.727 7.466-.336.909-.686 1.291-.272 2.157.56 1.172 1.142 2.338 1.723 3.5a5280.33 5280.33 0 0 0 2.206-6.325c.391-1.121.786-2.248 1.166-3.377zm.908 1.041l-2.742 7.745c-.132.37-1.031 2.084-.854 2.454l1.625 3.406c3.664-3.566 4.058-9.107 1.971-13.605zm-15.967-7.152c-.189.765-.373 1.545-.438 2.335.046.092.45.199.539.239l4.636 2.065-3.779-8.893c.009 1.418-.618 2.899-.958 4.254zm-.817 7.387l2.574 1.065c1.227.511 2.457 1.019 3.684 1.533.242.101 1.613.899 1.854.792-.374-.887-.744-1.772-1.117-2.659-.208-.493-.474-1.833-1-2.059-1.934-.835-3.871-1.668-5.805-2.503-.122.523-.753 3.599-.19 3.831zm9.07 5.689c-.364-.887-.884-.884-1.784-1.245-2.46-.985-4.915-1.983-7.366-2.983.12 1.031.034 3.369 1.132 3.849 1.092.475 2.191.937 3.287 1.401 2.056.869 4.112 1.738 6.172 2.604-.474-1.212-.945-2.424-1.441-3.626zm-.269 4.149l-7.586-3.158c1.937 4.562 6.316 7.983 11.414 7.659l-1.438-3.488c-.153-.383-2.026-.86-2.39-1.013zm-36.087 15.315c-.759-.22-1.551-.328-2.338-.419-1.389-.165-2.996-.101-4.314-.612 2.326 2.228 4.648 4.458 6.974 6.686-.095-1.689-.192-3.378-.288-5.064-.006-.098.033-.514-.034-.591zm4.942 4.217c-.027-.927-.058-1.854-.085-2.782-.019-.609-3.115-1.107-3.645-1.184.095 2.105.187 4.21.282 6.316.024.572 1.181 1.297 1.57 1.667l2.09 1.986c.187-.187-.077-1.75-.086-2.013-.043-1.331-.086-2.659-.126-3.99zm2.02 7.717c.948.887 1.916 1.763 2.879 2.635-.08-2.231-.159-4.462-.245-6.692-.046-1.19-.088-2.381-.146-3.571-.058-1.196-2.274-1.946-3.198-2.423.064 2.65.128 5.297.177 7.947.019.966-.168 1.45.533 2.104zm3.975 1.218c.012.395-.202 2.316.098 2.598l2.754 2.58c2.111-4.651.468-9.96-3.115-13.388.088 2.736.174 5.475.263 8.21zm-17.739-9.063c.101.783.214 1.576.441 2.332.076.067.492.024.587.027l5.067.239c-2.252-2.304-4.504-4.605-6.753-6.909.529 1.315.481 2.925.658 4.311zm7.026 3.76l-6.319-.221c.08.529.609 3.623 1.218 3.635l2.785.055c1.331.028 2.659.055 3.99.089.263.006 1.83.251 2.013.064l-2.007-2.072c-.371-.378-1.108-1.528-1.68-1.55zm3.304 4.905c-2.65-.024-5.3-.061-7.947-.101.486.918 1.258 3.127 2.457 3.173 1.19.046 2.381.077 3.571.11 2.23.064 4.464.123 6.695.181a224.428 224.428 0 0 0-2.663-2.852c-.662-.694-1.142-.501-2.113-.511zm8.578 7.274l-2.607-2.727c-.285-.297-2.203-.064-2.598-.073l-8.213-.184c3.466 3.547 8.788 5.141 13.418 2.984zm-27.736-1.475c-.759-.22-1.551-.328-2.338-.419-1.389-.165-2.996-.101-4.314-.612 2.326 2.228 4.648 4.458 6.974 6.686-.095-1.689-.193-3.378-.288-5.064-.006-.098.033-.514-.034-.591zm4.942 4.217l-.083-2.782c-.019-.609-3.115-1.107-3.645-1.184.095 2.105.187 4.21.282 6.316.024.572 1.181 1.297 1.57 1.667l2.09 1.986c.187-.187-.077-1.75-.086-2.013a885.817 885.817 0 0 1-.128-3.99zm1.487 5.609c.018.97-.168 1.454.532 2.108.949.887 1.916 1.763 2.88 2.635-.08-2.231-.163-4.461-.245-6.692-.046-1.19-.089-2.381-.144-3.571-.058-1.197-2.274-1.946-3.198-2.424.062 2.647.126 5.294.175 7.944zm4.244-4.884c.089 2.736.174 5.475.263 8.21.012.395-.202 2.316.098 2.598l2.754 2.58c2.112-4.652.465-9.961-3.115-13.388zm-17.473-.854c.101.783.214 1.576.444 2.332.077.067.493.024.587.028l5.067.238c-2.252-2.304-4.504-4.605-6.753-6.909.524 1.315.475 2.925.655 4.311zm7.023 3.761l-6.319-.221c.079.53.609 3.623 1.218 3.636l2.785.055c1.331.028 2.659.055 3.99.089.263.006 1.83.251 2.013.064-.67-.692-1.34-1.38-2.007-2.072-.37-.379-1.107-1.529-1.68-1.551zm3.305 4.905c-2.65-.025-5.297-.062-7.947-.101.486.918 1.257 3.127 2.457 3.173 1.19.046 2.381.077 3.571.11 2.23.064 4.464.123 6.695.181a224.428 224.428 0 0 0-2.663-2.852c-.659-.694-1.143-.502-2.113-.511zm3.372 4.474l-8.213-.184c3.467 3.546 8.788 5.141 13.418 2.98l-2.607-2.727c-.284-.295-2.203-.06-2.598-.069zm38.535-32.286l1.964-5.805c.037-.11.272-.557.229-.673-.75-.591-1.591-1.068-2.426-1.527-1.481-.811-3.311-1.466-4.557-2.635l4.79 10.64zm4.167 5.003c.551-1.512 1.105-3.02 1.659-4.525.389-1.053.774-2.105 1.163-3.155.254-.691-2.989-2.65-3.549-2.974-.845 2.402-1.692 4.801-2.54 7.203-.229.652.737 1.989 1.007 2.577l1.444 3.17c.293-.13.706-1.996.816-2.296zm6.668-2.396c.477-1.368-1.668-3.207-2.485-4.162a1517.16 1517.16 0 0 1-3.391 8.981c-.416 1.095-.844 1.551-.355 2.601.664 1.426 1.35 2.837 2.035 4.253.918-2.537 1.836-5.07 2.748-7.61.484-1.349.974-2.701 1.448-4.063zm1.083 1.27l-3.415 9.318c-.166.447-1.273 2.503-1.065 2.953l1.918 4.134c4.472-4.257 5.026-10.946 2.562-16.405zm-19.189-8.85c-.242.921-.471 1.86-.557 2.812.055.11.542.248.646.297 1.857.854 3.715 1.705 5.569 2.558l-4.446-10.79c-.006 1.708-.783 3.49-1.212 5.123zm-1.086 8.908l3.094 1.322a819.99 819.99 0 0 1 4.431 1.903c.291.125 1.934 1.108 2.228.982l-1.313-3.225c-.245-.6-.551-2.219-1.181-2.5-2.326-1.035-4.654-2.066-6.98-3.1-.154.625-.958 4.33-.279 4.618zm-.116 1.763c.131 1.249-.003 4.07 1.319 4.664 1.312.59 2.631 1.163 3.95 1.738 2.473 1.08 4.945 2.154 7.421 3.229-.557-1.469-1.114-2.938-1.695-4.4-.429-1.074-1.056-1.08-2.136-1.527a1841.41 1841.41 0 0 1-8.859-3.704zm10.615 10.239c-3.039-1.307-6.081-2.61-9.119-3.917 2.28 5.539 7.521 9.728 13.688 9.403l-1.689-4.232c-.188-.462-2.443-1.065-2.88-1.254zm-36.65 36.175c-.245-.924-.63-1.812-1.022-2.678-.695-1.539-1.766-3.161-2.056-4.847-.857 3.795-1.71 7.589-2.567 11.383l5.061-3.458c.095-.067.55-.281.584-.4zm-1.279 7.742c.942-.609 1.885-1.215 2.827-1.824.621-.398-.795-3.914-1.049-4.51-2.121 1.41-4.238 2.821-6.359 4.232-.575.382-.606 2.032-.744 2.662-.251 1.135-.502 2.267-.75 3.403.309.076 1.766-1.169 2.032-1.344 1.344-.875 2.694-1.747 4.043-2.619zm3.237-.104c-2.699 1.72-5.401 3.437-8.109 5.141-.992.625-1.606.731-1.848 1.864-.328 1.536-.627 3.078-.931 4.621 2.258-1.475 4.517-2.95 6.772-4.431 1.203-.789 2.408-1.576 3.602-2.377 1.203-.807.594-3.564.514-4.818zm-.413 6.483c-2.775 1.799-5.554 3.596-8.329 5.395-.401.257-2.521 1.233-2.625 1.72l-.952 4.456c6.132-.714 10.593-5.726 11.906-11.571zm-5.963-21.97c-1.031 1.362-2.727 2.316-4.048 3.366-.747.59-1.497 1.203-2.139 1.913-.024.122.285.523.34.627l2.913 5.392c.978-3.77 1.954-7.535 2.934-11.298zm-10.276 9.832c.56.97 1.12 1.943 1.677 2.916.802 1.393 1.6 2.788 2.396 4.183.159.275.881 2.05 1.19 2.124l.89-3.369c.166-.624.894-2.105.557-2.708l-3.715-6.674c-.492.412-3.362 2.888-2.995 3.528zm4.495 12.126c.303-1.117-.193-1.496-.79-2.503-1.628-2.754-3.241-5.52-4.853-8.283-.646 1.077-2.448 3.252-1.75 4.52.694 1.261 1.404 2.509 2.111 3.764 1.328 2.347 2.656 4.694 3.99 7.038.438-1.512.879-3.021 1.292-4.536zm-2.965 10.906l1.193-4.397c.132-.48-1.31-2.319-1.545-2.732-1.643-2.871-3.289-5.741-4.933-8.611-1.508 5.795.162 12.295 5.285 15.74zm-67.513 64.11c.052-.156.376-.792.312-.955-1.071-.823-2.264-1.484-3.455-2.118-2.105-1.123-4.7-2.02-6.481-3.654l6.937 14.963c.897-2.746 1.791-5.491 2.687-8.236zm2.164 18.495c.41-.184.967-2.831 1.117-3.253a1811.39 1811.39 0 0 1 2.273-6.423c.533-1.493 1.062-2.986 1.594-4.477.349-.979-4.266-3.697-5.061-4.146-1.157 3.406-2.316 6.812-3.476 10.217-.315.927 1.074 2.797 1.462 3.623.695 1.488 1.393 2.975 2.091 4.459zm10.498-6.741c.652-1.94-2.405-4.507-3.577-5.841-1.542 4.25-3.084 8.503-4.651 12.745-.572 1.555-1.169 2.207-.462 3.681.958 2.004 1.949 3.99 2.941 5.976 1.257-3.598 2.515-7.197 3.764-10.795.666-1.92 1.34-3.839 1.985-5.766zm-1.808 24.997c6.249-6.086 6.924-15.548 3.36-23.222a15969.34 15969.34 0 0 0-4.679 13.219c-.224.633-1.76 3.556-1.457 4.192.925 1.937 1.852 3.874 2.776 5.811zm-23.892-35.429c-.328 1.307-.637 2.638-.747 3.984.08.156.768.343.918.41 2.638 1.175 5.275 2.35 7.91 3.528-2.151-5.061-4.299-10.119-6.451-15.178.022 2.412-1.052 4.94-1.63 7.256zm2.992 14.425c2.096.869 4.195 1.741 6.288 2.62.413.174 2.751 1.536 3.164 1.353l-1.906-4.538c-.355-.842-.811-3.127-1.71-3.516-3.305-1.423-6.61-2.849-9.912-4.271-.199.89-1.279 6.138-.318 6.536 1.469.601 2.931 1.21 4.394 1.816zm-2.589 7.243c1.863.811 3.739 1.601 5.609 2.393 3.51 1.487 7.023 2.965 10.536 4.443-.811-2.068-1.619-4.137-2.463-6.19-.621-1.512-1.508-1.508-3.042-2.124a2311.86 2311.86 0 0 1-12.577-5.095c.208 1.766.061 5.756 1.937 6.573zm19.762 15.417c-.817-1.986-1.634-3.969-2.454-5.955-.269-.652-3.464-1.469-4.085-1.729-4.314-1.796-8.632-3.592-12.947-5.392 3.311 7.791 10.78 13.632 19.486 13.076zm-64.854-9.826c-.101-.113-.462-.676-.621-.692-1.135.6-2.197 1.377-3.234 2.164-1.839 1.389-3.718 3.317-5.814 4.195 5.003.095 10.006.187 15.012.281l-5.343-5.948zm11.197 6l4.483.061c.04-.447-1.818-2.083-2.087-2.399a1436.7 1436.7 0 0 1-4.085-4.801l-2.846-3.354c-.621-.734-4.856 2.203-5.569 2.72l6.563 7.509c.597.683 2.708.252 3.541.264zm8.351.111c2.022.012 4.048-.016 6.071-.04a4042.626 4042.626 0 0 0-6.895-8.017c-1.227-1.423-2.451-2.852-3.693-4.26-1.249-1.419-4.664.196-6.249.664a2075.66 2075.66 0 0 1 8.045 9.651c.979 1.181 1.23 1.992 2.721 2.002zm8.681.054l5.866.037c-2.032-8.198-9.25-12.889-16.956-13.027 2.803 3.293 5.606 6.588 8.412 9.881.404.475 2.038 3.104 2.678 3.109zm-33.03 6.026c.894.856 1.812 1.708 2.834 2.387.159-.003.618-.536.737-.643l6.355-5.526-14.963-.808c1.925 1.025 3.455 3.072 5.037 4.59zm12.188-3.403l-7.846 6.986c.618.563 4.306 3.792 5.052 3.106 1.138-1.043 2.276-2.087 3.418-3.127 1.634-1.493 3.268-2.986 4.905-4.474.324-.293 2.457-1.79 2.497-2.234-1.487-.088-2.978-.174-4.465-.263-.825-.049-2.848-.627-3.561.006zm8.825 2.283c-3.222 3.014-6.459 6.01-9.694 9.006 1.493.578 4.599 2.433 6.092 1.114 1.481-1.31 2.95-2.641 4.422-3.966 2.757-2.485 5.511-4.976 8.262-7.47-2.007-.171-4.015-.346-6.025-.48-1.484-.098-1.879.694-3.057 1.796zm-1.616 10.884c7.681.417 15.676-3.721 19.144-11.716l-5.835-.386c-.637-.043-2.724 2.454-3.207 2.895-3.37 3.069-6.735 6.138-10.102 9.207zm78.89-153.655c.037-.11.266-.56.22-.676-.759-.581-1.604-1.049-2.445-1.499-1.49-.796-3.326-1.429-4.584-2.586 1.637 3.528 3.271 7.06 4.908 10.587.634-1.943 1.268-3.882 1.901-5.826zm1.475.138l-2.46 7.231c-.224.655.759 1.98 1.034 2.564.493 1.049.985 2.102 1.481 3.155.291-.129.686-2.004.79-2.301.532-1.518 1.071-3.029 1.609-4.544l1.129-3.167c.248-.698-3.02-2.62-3.583-2.938zm1.335 15.67c.679 1.417 1.38 2.824 2.081 4.229.891-2.546 1.781-5.092 2.666-7.641.471-1.359.948-2.718 1.404-4.083.462-1.374-1.701-3.188-2.531-4.134a1902.44 1902.44 0 0 1-3.292 9.018c-.405 1.106-.827 1.568-.328 2.611zm7.249-6.233c-1.104 3.118-2.209 6.236-3.311 9.354-.159.45-1.246 2.516-1.031 2.965l1.965 4.112c4.421-4.307 4.901-10.999 2.377-16.431zm-13.565-3.035l-4.562-10.741c.012 1.708-.747 3.498-1.157 5.135-.229.924-.45 1.866-.526 2.818.055.11.545.242.649.291l5.596 2.497zm-3.602 4.605c1.484.615 2.968 1.233 4.452 1.854.294.123 1.946 1.086 2.24.958l-1.349-3.213c-.251-.597-.576-2.212-1.209-2.488-2.338-1.006-4.675-2.017-7.013-3.023-.141.63-.906 4.342-.224 4.624 1.031.428 2.068.857 3.103 1.288zm-3.201.474c.144 1.248.042 4.07 1.371 4.648 1.319.575 2.647 1.132 3.969 1.692 2.485 1.052 4.97 2.099 7.454 3.146-.572-1.462-1.144-2.925-1.741-4.379-.441-1.071-1.068-1.068-2.154-1.502a1503.568 1503.568 0 0 1-8.899-3.605zm15.352 15.557l-1.735-4.213c-.189-.459-2.451-1.041-2.892-1.224l-9.162-3.816c2.342 5.517 7.629 9.648 13.789 9.253zm-56.824 40.964c-.107-.046-.535-.309-.655-.275-.643.707-1.178 1.512-1.695 2.313-.915 1.42-1.699 3.198-2.953 4.357 3.65-1.343 7.301-2.684 10.955-4.027-1.885-.786-3.77-1.575-5.652-2.368zm9.905.763l3.265-1.218c-.104-.3-1.94-.845-2.23-.977-1.469-.655-2.932-1.315-4.397-1.974l-3.066-1.383c-.67-.303-2.855 2.793-3.216 3.329 2.335 1.013 4.669 2.029 7.004 3.042.633.279 2.035-.593 2.64-.819zm6.081-2.271c1.469-.56 2.925-1.145 4.385-1.729-2.463-1.096-4.93-2.191-7.396-3.28-1.316-.582-2.631-1.166-3.954-1.735-1.331-.572-3.317 1.435-4.327 2.185 2.91 1.334 5.817 2.668 8.721 4.018 1.062.498 1.487.954 2.571.541zm6.3-2.396c1.42-.542 2.84-1.081 4.26-1.622-3.929-4.758-10.563-5.783-16.182-3.715 3.018 1.356 6.035 2.711 9.052 4.064.434.196 2.405 1.447 2.87 1.273zm-22.109 13.176c.903.306 1.824.603 2.766.756.116-.046.285-.523.343-.625l2.947-5.376c-3.693 1.224-7.384 2.448-11.077 3.669 1.698.132 3.421 1.035 5.021 1.576zm7.807-5.63c-1.197 2.246-2.39 4.495-3.586 6.744.618.193 4.253 1.258 4.59.603.511-.998 1.025-1.995 1.536-2.993.734-1.429 1.472-2.858 2.212-4.284.147-.282 1.243-1.851 1.139-2.154-1.105.361-2.207.722-3.311 1.08-.619.205-2.256.395-2.58 1.004zm7.074-.988a1526.907 1526.907 0 0 1-4.321 8.574c1.254-.042 4.061.291 4.746-.985.679-1.267 1.343-2.542 2.014-3.819 1.251-2.39 2.497-4.78 3.745-7.172-1.505.45-3.011.902-4.507 1.377-1.108.354-1.154.978-1.677 2.025zm8.097-4.07c-.474.15-1.236 2.359-1.457 2.781-1.518 2.941-3.036 5.878-4.55 8.819 5.686-1.882 10.236-6.814 10.349-12.986-1.447.461-2.895.923-4.342 1.386zm-39.18 23.776c.046-.107.309-.535.275-.655-.707-.643-1.512-1.178-2.313-1.695-1.42-.915-3.198-1.698-4.357-2.953 1.34 3.65 2.684 7.301 4.027 10.955a1938.82 1938.82 0 0 1 2.368-5.652zm-.762 9.905l1.218 3.265c.3-.104.844-1.94.976-2.231.655-1.469 1.316-2.931 1.974-4.397l1.383-3.066c.303-.67-2.794-2.854-3.33-3.216-1.013 2.335-2.029 4.669-3.042 7.004-.277.634.595 2.035.821 2.641zm2.27 6.081c.56 1.469 1.145 2.925 1.729 4.385 1.096-2.463 2.191-4.93 3.28-7.396.582-1.316 1.166-2.632 1.735-3.954.572-1.331-1.436-3.317-2.185-4.327-1.334 2.91-2.668 5.817-4.018 8.721-.498 1.062-.954 1.487-.541 2.571zm2.4 6.303c.542 1.42 1.08 2.84 1.622 4.26 4.758-3.929 5.787-10.563 3.715-16.181-1.355 3.017-2.711 6.034-4.063 9.051-.201.431-1.452 2.405-1.274 2.87zm-7.938-16.059c-1.224-3.694-2.448-7.384-3.669-11.078-.128 1.705-1.031 3.424-1.573 5.025-.306.903-.603 1.824-.756 2.766.046.116.523.285.625.343 1.79.983 3.583 1.962 5.373 2.944zm-3.966 4.293c1.429.734 2.858 1.472 4.284 2.212.282.147 1.852 1.242 2.154 1.138-.361-1.104-.722-2.209-1.08-3.311-.202-.615-.392-2.252-1.004-2.577-2.246-1.196-4.495-2.39-6.741-3.586-.192.618-1.257 4.253-.603 4.59.995.509 1.993 1.023 2.99 1.534zm-2.246 4.961c1.267.679 2.542 1.346 3.819 2.013 2.39 1.251 4.78 2.497 7.172 3.746-.45-1.505-.902-3.011-1.377-4.507-.352-1.102-.976-1.151-2.022-1.674a1526.907 1526.907 0 0 1-8.574-4.321c.039 1.251-.294 4.057.982 4.743zm11.662 7.674c-.153-.474-2.359-1.236-2.782-1.457-2.94-1.518-5.878-3.036-8.819-4.55 1.882 5.686 6.814 10.236 12.987 10.349-.465-1.447-.927-2.895-1.386-4.342zM256.92 79.496l2.46-7.54c.046-.144.343-.726.285-.875-.979-.752-2.075-1.358-3.164-1.94-1.928-1.028-4.306-1.852-5.934-3.345 2.119 4.565 4.236 9.134 6.353 13.7zm9.006-3.565c.321-.896-3.908-3.384-4.636-3.797-1.062 3.118-2.121 6.239-3.183 9.357-.288.848.985 2.561 1.34 3.32.64 1.358 1.276 2.72 1.916 4.082.376-.168.884-2.592 1.022-2.98a2718.618 2718.618 0 0 1 3.541-9.982zm5.052 6.787c.597-1.778-2.203-4.128-3.274-5.349-1.414 3.892-2.824 7.784-4.26 11.671-.526 1.423-1.071 2.02-.425 3.372.878 1.833 1.787 3.653 2.693 5.471 1.154-3.296 2.301-6.588 3.449-9.887.609-1.756 1.224-3.513 1.817-5.278zm1.42 1.628c-1.429 4.036-2.858 8.069-4.284 12.105-.205.581-1.613 3.256-1.334 3.837.848 1.775 1.695 3.547 2.54 5.322 5.722-5.572 6.343-14.235 3.078-21.264zm-24.957-11.179c-.3 1.197-.584 2.415-.683 3.647.074.144.704.312.842.374 2.414 1.077 4.829 2.154 7.243 3.228-1.967-4.633-3.938-9.266-5.906-13.898.016 2.212-.967 4.529-1.496 6.649zm8.087 9.471l-9.076-3.911c-.184.817-1.172 5.621-.291 5.985l4.021 1.665c1.921.796 3.84 1.594 5.759 2.399.379.159 2.519 1.408 2.898 1.239l-1.744-4.155c-.324-.777-.743-2.867-1.567-3.222zm2.026 9.018c-3.844-1.54-7.681-3.103-11.515-4.664.19 1.613.055 5.266 1.772 6.016 1.708.743 3.424 1.465 5.138 2.191 3.213 1.361 6.429 2.717 9.648 4.07-.741-1.895-1.481-3.789-2.255-5.667-.57-1.386-1.381-1.383-2.788-1.946zm6.108 10.015c-.245-.597-3.173-1.346-3.742-1.582-3.954-1.646-7.904-3.29-11.854-4.936 3.029 7.133 9.872 12.481 17.843 11.971-.751-1.817-1.497-3.635-2.247-5.453zM171.4 149.365c-.159-.034-.808-.282-.961-.205-.688 1.126-1.209 2.353-1.701 3.574-.873 2.161-1.475 4.774-2.876 6.671 4.605-2.763 9.208-5.523 13.812-8.283-2.757-.585-5.517-1.17-8.274-1.757zm17.736-4.015c-.221-.379-2.849-.646-3.274-.746a2341.98 2341.98 0 0 1-10.986-2.628c-.988-.239-3.149 4.526-3.504 5.346 3.427.771 6.854 1.545 10.282 2.316.933.211 2.607-1.331 3.369-1.796 1.374-.83 2.745-1.663 4.113-2.492zm-7.632-9.498c-1.952-.432-4.128 2.803-5.303 4.079 4.287 1.059 8.577 2.118 12.858 3.198 1.567.395 2.261.906 3.623.067a403.343 403.343 0 0 0 5.499-3.476c-3.623-.851-7.249-1.699-10.872-2.54-1.934-.447-3.868-.9-5.805-1.328zm1.563-1.693l13.323 3.177c.64.153 3.635 1.34 4.22.982l5.355-3.295c-6.554-5.441-15.814-5.12-22.898-.864zm-9.036 27.73c1.304.184 2.628.346 3.948.312.144-.095.254-.78.303-.933l2.607-8.048-14.073 7.833c2.341-.265 4.908.515 7.215.836zm12.387.052l1.312-4.453c.627-2.126 1.258-4.253 1.891-6.38.125-.419 1.206-2.831.985-3.213-1.405.774-2.806 1.548-4.21 2.319-.78.431-2.953 1.111-3.234 2.022-1.041 3.357-2.081 6.71-3.125 10.067.888.11 6.097.614 6.381-.362zm13.583-19.073c-1.925 1-3.85 1.998-5.756 3.033-1.404.759-1.31 1.619-1.747 3.173-1.2 4.25-2.424 8.495-3.645 12.739 1.689-.382 5.582-.651 6.181-2.558.597-1.894 1.166-3.794 1.744-5.694a5047.59 5047.59 0 0 0 3.223-10.693zm2.43-1.401c-.603.327-1.068 3.516-1.254 4.146-1.297 4.375-2.598 8.754-3.896 13.13 7.222-4.018 12.121-11.879 10.679-20.276-1.845 1.002-3.687 1.999-5.529 3zM151.69 115.05c-.104-.092-.478-.551-.625-.557-.985.542-1.891 1.233-2.772 1.928-1.561 1.23-3.112 2.913-4.954 3.724 4.581-.098 9.159-.196 13.74-.297-1.799-1.598-3.593-3.198-5.389-4.798zm10.738 4.636c1.368-.037 2.733-.07 4.101-.107-.003-.376-1.839-1.683-2.111-1.94-1.383-1.292-2.763-2.586-4.144-3.88-.96-.903-1.925-1.808-2.885-2.714-.63-.593-4.248 2.02-4.856 2.479l6.637 6.068c.605.55 2.499.115 3.258.094zm7.641-.202c1.848-.062 3.696-.156 5.544-.248a3284.203 3284.203 0 0 0-6.983-6.481c-1.242-1.151-2.485-2.304-3.739-3.442-1.264-1.145-4.244.33-5.655.78 2.729 2.598 5.459 5.196 8.176 7.809.995.954 1.295 1.628 2.657 1.582zm7.934-.263c1.787-.058 3.574-.12 5.364-.178-2.558-6.802-9.553-10.48-16.604-10.324l8.528 7.989c.411.383 2.128 2.531 2.712 2.513zm-29.66 6.223c.887.686 1.799 1.368 2.791 1.9.147-.009.517-.471.618-.563 1.778-1.619 3.556-3.241 5.336-4.859l-13.739-.147c1.848.79 3.418 2.454 4.994 3.669zm9.155 5.279l2.855-2.745c1.365-1.31 2.729-2.62 4.101-3.926.269-.257 2.093-1.588 2.09-1.961l-4.1-.061c-.762-.012-2.659-.425-3.253.131-2.191 2.047-4.382 4.091-6.573 6.139.611.446 4.253 3.023 4.88 2.423zm11.221-1.83c2.307-2.182 4.611-4.37 6.913-6.558-1.848-.073-3.697-.147-5.548-.189-1.362-.031-1.655.646-2.638 1.613-2.687 2.641-5.389 5.269-8.091 7.897 1.414.432 4.41 1.876 5.661.719 1.243-1.15 2.47-2.319 3.703-3.482zm9.302-6.57c-.587-.012-2.28 2.154-2.684 2.543-2.815 2.693-5.627 5.389-8.439 8.082 7.05.077 14.006-3.675 16.49-10.505l-5.367-.12zm28.884 56.739c-1.007.854-1.885 1.857-2.732 2.861-1.505 1.778-2.898 4.073-4.823 5.435 5.239-1.181 10.475-2.362 15.713-3.54l-7.307-4.26c-.144-.083-.683-.52-.851-.496zm1.463-1.457l9.039 5.422c.82.493 2.892-.45 3.761-.649 1.561-.358 3.125-.719 4.685-1.08-.089-.432-2.503-1.506-2.876-1.735-1.891-1.16-3.776-2.325-5.664-3.491-1.316-.814-2.632-1.628-3.947-2.445-.861-.535-4.408 3.311-4.998 3.978zm6.9-5.504c3.742 2.347 7.481 4.697 11.212 7.065 1.365.866 1.863 1.57 3.418 1.199a363.44 363.44 0 0 0 6.31-1.579 4495.9 4495.9 0 0 0-9.532-5.817c-1.695-1.031-3.391-2.068-5.098-3.081-1.717-1.022-4.798 1.368-6.31 2.213zm8.326-3.33l11.655 7.188c.56.346 3.033 2.411 3.7 2.255 2.041-.483 4.079-.97 6.12-1.454-4.523-7.218-13.415-9.813-21.475-7.989zm-13.035 24.245c1.665-2.277 3.329-4.55 4.997-6.827l-15.817 3.033c2.308.48 4.501 2.026 6.591 3.054 1.181.582 2.387 1.154 3.651 1.533.165-.044.483-.665.578-.793zm7.518 3.191c.878-1.273 1.759-2.546 2.641-3.819a1364.21 1364.21 0 0 1 3.794-5.465c.251-.361 2.032-2.31 1.943-2.742-1.576.294-3.152.591-4.725.884-.878.166-3.152.132-3.708.909l-6.12 8.583c.811.374 5.597 2.485 6.175 1.65zm9.021.144c1.16-1.613 2.298-3.241 3.439-4.862 2.142-3.045 4.278-6.093 6.411-9.144a386.69 386.69 0 0 0-6.417 1.077c-1.573.282-1.75 1.129-2.653 2.466-2.47 3.66-4.96 7.311-7.451 10.958 1.726.169 5.505 1.13 6.671-.495zm10.104-11.032l-7.812 11.249c8.118-1.555 15.23-7.485 16.494-15.909-2.062.374-4.128.744-6.19 1.117-.677.122-2.115 3.005-2.492 3.543zm-125.561 67.727c-.688 1.126-1.209 2.354-1.698 3.574-.872 2.161-1.475 4.773-2.879 6.671l13.812-8.284c-2.757-.584-5.514-1.172-8.274-1.756-.159-.033-.808-.284-.961-.205zm14.587-1.318c1.371-.829 2.742-1.662 4.113-2.491-.22-.379-2.849-.646-3.274-.747a2341.98 2341.98 0 0 1-10.986-2.628c-.988-.239-3.149 4.525-3.504 5.346 3.427.771 6.854 1.545 10.282 2.316.93.208 2.607-1.334 3.369-1.796zm7.656-4.645a393.826 393.826 0 0 0 5.499-3.476c-3.623-.851-7.249-1.698-10.872-2.54-1.934-.45-3.868-.902-5.805-1.331-1.952-.431-4.128 2.803-5.303 4.079 4.287 1.059 8.577 2.118 12.858 3.198 1.57.397 2.264.908 3.623.07zm-9.614-9.037c4.44 1.059 8.88 2.118 13.323 3.176.64.153 3.635 1.34 4.22.982l5.355-3.296c-6.558-5.439-15.814-5.118-22.898-.862zm-16.252 26.895c2.344-.266 4.908.514 7.218.835 1.304.184 2.625.346 3.948.312.144-.095.254-.78.303-.934l2.607-8.047c-4.697 2.61-9.385 5.221-14.076 7.834zm19.602.887l1.313-4.452c.627-2.127 1.258-4.253 1.891-6.38.125-.419 1.206-2.831.985-3.213-1.405.774-2.806 1.548-4.21 2.319-.78.432-2.953 1.111-3.234 2.023-1.041 3.357-2.081 6.71-3.125 10.067.887.104 6.096.609 6.38-.364zm8.614-2.686c.597-1.894 1.166-3.794 1.744-5.695 1.08-3.562 2.154-7.126 3.225-10.691-1.925 1-3.85 1.998-5.756 3.032-1.404.759-1.31 1.619-1.747 3.173-1.2 4.25-2.424 8.495-3.645 12.739 1.69-.383 5.583-.652 6.179-2.558zm12.926-20.787l-5.529 2.999c-.603.328-1.068 3.516-1.255 4.146-1.3 4.376-2.598 8.755-3.895 13.13 7.224-4.02 12.12-11.879 10.679-20.275zm12.916 256.847c2.726.07 5.493.101 8.201-.281.275-.227.339-1.668.404-1.995a34870.8 34870.8 0 0 1 3.492-17.186c-9.052 6.479-18.106 12.953-27.158 19.429 4.764-1.099 10.232-.089 15.061.033zm30.884-32.693c-2.711 1.922-5.422 3.844-8.133 5.763-1.509 1.067-5.826 2.977-6.193 4.923-1.362 7.154-2.721 14.312-4.082 21.47 1.848.006 12.693-.172 13.057-2.25.551-3.16 1.108-6.318 1.662-9.479.796-4.528 1.598-9.055 2.408-13.583.158-.892 1.823-6.113 1.281-6.844zm7.026-4.966c-2.717 1.894-2.319 3.638-2.861 6.946-1.478 9.036-3.005 18.066-4.532 27.096 3.394-1.178 11.343-2.649 12.133-6.717.787-4.039 1.518-8.09 2.261-12.139a9119.23 9119.23 0 0 0 4.146-22.775c-3.729 2.509-7.46 5.016-11.147 7.589zm15.821-11.05c-1.169.817-1.38 7.497-1.616 8.837-1.656 9.318-3.305 18.639-4.958 27.96 13.945-9.961 22.197-27.302 17.265-44.261l-10.691 7.464zm-62.082 23.523c-.331-.031-1.729-.392-2.025-.196-1.157 2.479-1.934 5.135-2.666 7.764-1.292 4.657-1.928 10.181-4.37 14.415 8.837-6.766 17.678-13.531 26.515-20.297-5.817-.563-11.634-1.127-17.454-1.686zm14.988-14.857c-3.185-.392-6.368-.787-9.55-1.182-2.09-.26-5.428 10.062-5.964 11.83l21.723 2.372c1.967.217 5.055-3.354 6.521-4.483 2.628-2.032 5.26-4.061 7.889-6.093-.542-.734-6.022-.667-6.925-.776-4.566-.545-9.132-1.105-13.694-1.668zm-7.298-5.704c9.082 1.178 18.164 2.356 27.237 3.583 3.32.45 4.875 1.341 7.479-.703 3.537-2.775 7.025-5.612 10.517-8.446a10057.22 10057.22 0 0 0-22.993-2.689c-4.088-.471-8.177-.954-12.271-1.386-4.121-.432-7.848 6.741-9.969 9.641zm49.905-9.023c3.421-2.681 6.845-5.361 10.267-8.039-14.78-9.673-33.77-6.845-47.375 3.574a67680.26 67680.26 0 0 0 28.186 3.43c1.352.163 7.799 1.913 8.922 1.035zm243.307-5.089c.052.275.085 1.49.315 1.683 2.273.358 4.596.37 6.891.346 4.063-.04 8.675-.816 12.668.172-7.527-5.566-15.052-11.133-22.579-16.702.9 4.837 1.802 9.669 2.705 14.501zm-11.567-20.922c-2.255-1.652-4.51-3.305-6.763-4.954-.465.609.866 5.021.989 5.774.621 3.819 1.235 7.635 1.845 11.453.426 2.666.848 5.331 1.27 7.993.278 1.75 9.395 2.044 10.949 2.065-1.05-6.034-2.097-12.071-3.146-18.109-.285-1.639-3.889-3.304-5.144-4.222zm-12.603-9.226c-3.066-2.212-6.172-4.37-9.275-6.533a7764.31 7764.31 0 0 0 3.186 19.208c.572 3.415 1.133 6.83 1.741 10.238.609 3.431 7.273 4.773 10.113 5.812a3824.635 3824.635 0 0 1-3.448-22.847c-.414-2.787-.057-4.247-2.317-5.878zm-11.916-2.047c-.181-1.133-.272-6.751-1.242-7.451-2.965-2.139-5.928-4.281-8.893-6.42-4.373 14.195 2.335 28.89 13.93 37.451-1.265-7.861-2.529-15.722-3.795-23.58zm52.356 13.014c-.247-.168-1.426.116-1.707.138l-14.703 1.185c7.344 5.808 14.685 11.612 22.028 17.421-1.998-3.593-2.457-8.25-3.482-12.183-.575-2.215-1.197-4.458-2.136-6.561zm-6.064-13.418c-2.681.291-5.364.578-8.048.866-3.844.413-7.693.823-11.539 1.221-.763.08-5.367-.049-5.833.561 2.186 1.744 4.37 3.485 6.552 5.229 1.218.97 3.764 4.012 5.422 3.858 6.099-.569 12.201-1.139 18.299-1.704-.423-1.5-3.091-10.22-4.853-10.031zm-24.787-1.184c7.646-.911 15.3-1.78 22.953-2.649-1.747-2.467-4.783-8.55-8.256-8.24-3.449.306-6.892.657-10.337 1-6.46.643-12.916 1.298-19.373 1.956 2.898 2.43 5.793 4.858 8.73 7.242 2.167 1.753 3.487 1.025 6.283.691zm-11.377-11.656c7.916-.835 15.832-1.674 23.748-2.509-11.303-8.941-27.236-11.573-39.792-3.636 2.843 2.298 5.686 4.6 8.525 6.897.934.754 6.381-.633 7.519-.752zm107.057-29.327c.181.215.812 1.252 1.108 1.307 2.151-.816 4.177-1.958 6.156-3.115 3.51-2.047 7.13-5.009 11.087-6.129-9.297-1.104-18.593-2.206-27.89-3.311 3.181 3.748 6.357 7.497 9.539 11.248zm-20.419-12.435c-2.775-.315-5.554-.634-8.329-.948-.104.759 3.24 3.932 3.721 4.525 2.433 3.008 4.859 6.019 7.279 9.033 1.689 2.105 3.379 4.207 5.067 6.312 1.111 1.384 9.171-2.882 10.533-3.635a41991.97 41991.97 0 0 1-11.711-14.168c-1.058-1.284-5.015-.945-6.56-1.119zm-15.517-1.763c-3.761-.4-7.527-.737-11.291-1.074 4.091 5.04 8.186 10.074 12.289 15.104 2.188 2.684 4.369 5.37 6.588 8.029 2.23 2.678 8.685.539 11.662.03-4.786-6.034-9.572-12.068-14.324-18.13-1.742-2.218-2.155-3.665-4.924-3.959zm-16.139-1.729c-3.635-.389-7.271-.777-10.905-1.169 3.24 14.495 16.35 23.929 30.664 25.618-4.994-6.199-9.991-12.396-14.984-18.593-.72-.89-3.585-5.728-4.775-5.856zm61.807-4.155c-1.604-1.641-3.253-3.281-5.11-4.64-.297-.024-1.182.808-1.414.964l-12.182 8.317c9.257 1.404 18.51 2.806 27.767 4.207-3.518-2.125-6.223-5.942-9.061-8.848zm-33.006-1.769c-.621.447-4.685 2.617-4.788 3.379 2.76.432 5.522.859 8.283 1.291 1.536.238 5.26 1.619 6.622.661l15.049-10.554c-1.114-1.087-7.754-7.338-9.192-6.301-2.185 1.582-4.373 3.161-6.561 4.743a2540.58 2540.58 0 0 1-9.413 6.781zm-6.138-.26c6.19-4.584 12.402-9.131 18.62-13.682-2.739-1.275-8.394-5.052-11.255-3.062-2.843 1.977-5.658 3.99-8.482 5.994a8427.555 8427.555 0 0 0-15.854 11.304c3.721.674 7.441 1.35 11.172 1.962 2.751.449 3.534-.839 5.799-2.516zm-32.639-1.863l10.823 1.763c1.182.192 5.227-3.712 6.157-4.379 6.463-4.651 12.922-9.303 19.382-13.954-14.249-2.164-29.391 3.451-36.362 16.57zm-2.031-70.87c-2.151 1.974-5.288 3.06-7.831 4.416-1.438.765-2.879 1.563-4.177 2.561-.076.199.315.964.377 1.154l3.246 9.951c2.794-6.029 5.591-12.054 8.385-18.082zm-15.594 26.551c.181.512.851 3.712 1.35 3.933.841-1.797 1.686-3.593 2.527-5.386.468-.997 2.148-3.263 1.766-4.382-1.398-4.116-2.8-8.235-4.201-12.351-.961.542-6.539 3.825-6.117 5.009l1.928 5.41c.92 2.59 1.835 5.178 2.747 7.767zm-.836 8.58c.854-1.783.132-2.57-.56-4.449-1.895-5.128-3.758-10.267-5.621-15.404-1.417 1.61-5.11 4.715-4.324 7.059.78 2.329 1.595 4.648 2.399 6.971 1.512 4.352 3.029 8.7 4.55 13.048 1.198-2.404 2.397-4.804 3.556-7.225zm-4.965 10.393c.367-.769-1.49-4.3-1.763-5.064l-5.655-15.977c-4.309 9.278-3.488 20.71 4.064 28.066 1.116-2.344 2.236-4.684 3.354-7.025zm26.422-30.98c-.129-1.628-.505-3.234-.899-4.816-.701-2.797-1.995-5.854-1.974-8.773l-7.794 18.345c3.188-1.42 6.374-2.843 9.562-4.263.179-.08 1.011-.303 1.105-.493zm.405 2.522c-3.993 1.719-7.987 3.441-11.98 5.162-1.086.468-1.637 3.228-2.065 4.247l-2.304 5.486c.498.221 3.323-1.426 3.824-1.634a3966.204 3966.204 0 0 1 12.908-5.361c1.165-.483-.142-6.824-.383-7.9zm.548 10.911a3074.618 3074.618 0 0 1-15.199 6.157c-1.854.743-2.926.737-3.679 2.567a459.877 459.877 0 0 0-2.974 7.481c4.247-1.787 8.491-3.574 12.732-5.37 2.262-.958 4.528-1.909 6.781-2.892 2.264-.99 2.09-5.813 2.339-7.943zm-2.675 10.771c-5.214 2.173-10.432 4.342-15.646 6.515-.75.312-4.615 1.304-4.939 2.09l-2.965 7.197c10.52.67 19.551-6.386 23.55-15.802zm36.894-33.194l8.385-18.084c-2.151 1.974-5.288 3.06-7.831 4.416-1.438.765-2.883 1.563-4.177 2.561-.076.199.315.964.376 1.154 1.083 3.322 2.167 6.636 3.247 9.953zm-7.209 8.47c.18.511.851 3.712 1.349 3.933.842-1.797 1.687-3.593 2.528-5.386.468-.998 2.147-3.262 1.766-4.382-1.398-4.116-2.801-8.234-4.202-12.35-.961.542-6.539 3.825-6.116 5.009l1.928 5.41c.92 2.591 1.835 5.177 2.747 7.766zm-8.941 2.754c1.511 4.352 3.029 8.699 4.55 13.048 1.196-2.402 2.396-4.801 3.556-7.225.854-1.784.132-2.57-.56-4.449-1.895-5.129-3.758-10.267-5.622-15.404-1.413 1.61-5.109 4.716-4.323 7.06.78 2.331 1.59 4.65 2.399 6.97zm1.38 11.153l-5.655-15.976c-4.309 9.279-3.488 20.71 4.063 28.067 1.117-2.342 2.237-4.683 3.354-7.023.364-.768-1.494-4.299-1.762-5.068zm27.074-25.422c.181-.083 1.014-.306 1.111-.496-.129-1.628-.505-3.234-.899-4.816-.701-2.797-1.995-5.854-1.974-8.773-2.599 6.114-5.196 12.231-7.794 18.345 3.182-1.418 6.367-2.837 9.556-4.26zm-12.533 11.441l-2.305 5.487c.499.221 3.323-1.426 3.825-1.635a1932.9 1932.9 0 0 1 7.602-3.164c1.769-.734 3.537-1.465 5.306-2.197 1.163-.48-.144-6.821-.386-7.898l-11.979 5.162c-1.081.463-1.635 3.226-2.063 4.245zm12.252 9.44c2.268-.988 2.09-5.811 2.338-7.94a3074.618 3074.618 0 0 1-15.199 6.157c-1.854.743-2.925.736-3.678 2.566a473.103 473.103 0 0 0-2.975 7.482c4.247-1.787 8.491-3.574 12.732-5.37 2.265-.961 4.53-1.913 6.782-2.895zm-20.918 11.436l-2.965 7.197c10.52.673 19.55-6.387 23.55-15.802l-15.649 6.515c-.751.311-4.612 1.303-4.936 2.09zm-170.616-91.136c-.077.199.314.964.376 1.153 1.083 3.317 2.163 6.634 3.247 9.951 2.794-6.028 5.587-12.057 8.384-18.084-2.147 1.974-5.287 3.06-7.83 4.416-1.439.767-2.884 1.566-4.177 2.564zm-8.259 6.401l1.928 5.41a2530 2530 0 0 1 2.747 7.763c.181.511.852 3.711 1.35 3.932l2.528-5.386c.468-.998 2.147-3.262 1.769-4.382-1.401-4.116-2.8-8.234-4.202-12.35-.968.545-6.546 3.829-6.12 5.013zm3.837 21.754c.854-1.784.135-2.57-.561-4.449-1.894-5.128-3.757-10.266-5.621-15.404-1.416 1.609-5.109 4.715-4.323 7.059.78 2.329 1.594 4.648 2.398 6.971 1.512 4.352 3.03 8.7 4.551 13.048 1.196-2.403 2.396-4.805 3.556-7.225zm-8.321 17.417c1.117-2.341 2.237-4.682 3.354-7.022.367-.768-1.49-4.299-1.763-5.064l-5.654-15.976c-4.306 9.274-3.488 20.706 4.063 28.062zm29.781-38.005c-.129-1.628-.505-3.234-.899-4.816-.698-2.797-1.996-5.854-1.975-8.773l-7.793 18.345c3.188-1.42 6.374-2.843 9.562-4.262.174-.081 1.006-.304 1.105-.494zm.403 2.522l-11.979 5.162c-1.086.468-1.638 3.228-2.065 4.247l-2.305 5.487c.499.22 3.323-1.426 3.825-1.634a3966.204 3966.204 0 0 1 12.908-5.361c1.162-.484-.145-6.825-.384-7.901zm.545 10.911a3035.527 3035.527 0 0 1-15.199 6.157c-1.857.744-2.925.737-3.678 2.567a459.917 459.917 0 0 0-2.975 7.481c4.247-1.787 8.491-3.574 12.732-5.37 2.262-.958 4.529-1.909 6.781-2.892 2.269-.99 2.091-5.813 2.339-7.943zm-2.675 10.772c-5.214 2.172-10.431 4.342-15.646 6.515-.75.312-4.614 1.303-4.938 2.09l-2.966 7.197c10.521.67 19.551-6.387 23.55-15.802zm35.512-50.701c-.076.199.315.964.376 1.153 1.084 3.317 2.164 6.634 3.247 9.951l8.385-18.084c-2.148 1.974-5.288 3.06-7.831 4.416-1.439.77-2.883 1.569-4.177 2.564zm-3.586 19.574c.181.511.851 3.712 1.349 3.932l2.528-5.386c.468-.998 2.147-3.262 1.769-4.382-1.398-4.116-2.8-8.234-4.201-12.35-.961.542-6.539 3.825-6.117 5.009l1.928 5.41c.917 2.593 1.832 5.178 2.744 7.767zm-.839 8.58c.854-1.784.135-2.57-.56-4.449-1.895-5.128-3.758-10.266-5.621-15.404-1.417 1.609-5.11 4.715-4.324 7.059.78 2.329 1.595 4.648 2.399 6.971 1.512 4.352 3.029 8.7 4.55 13.048 1.2-2.402 2.4-4.804 3.556-7.225zm-4.963 10.395c.367-.768-1.49-4.299-1.763-5.064l-5.655-15.976c-4.309 9.278-3.488 20.71 4.063 28.066 1.118-2.344 2.238-4.685 3.355-7.026zm26.423-30.982c-.129-1.628-.505-3.234-.902-4.816-.698-2.797-1.995-5.854-1.975-8.773l-7.793 18.344c3.188-1.419 6.374-2.842 9.562-4.262.18-.08 1.013-.304 1.108-.493zm.404 2.524l-11.98 5.162c-1.086.468-1.637 3.229-2.065 4.247l-2.304 5.487c.498.22 3.322-1.426 3.824-1.634a1669.29 1669.29 0 0 1 7.602-3.164c1.769-.734 3.537-1.466 5.306-2.197 1.165-.483-.142-6.827-.383-7.901zm.547 10.909a3035.181 3035.181 0 0 1-15.198 6.157c-1.854.744-2.926.738-3.679 2.567a463.63 463.63 0 0 0-2.974 7.482c4.247-1.787 8.491-3.574 12.732-5.371 2.261-.958 4.528-1.909 6.78-2.892 2.266-.99 2.092-5.813 2.339-7.943zm-2.674 10.772l-15.649 6.515c-.749.312-4.614 1.304-4.938 2.09l-2.965 7.197c10.523.669 19.552-6.387 23.552-15.802zm1.328 63.017c-1.42 1.221-2.84 2.481-4.039 3.926-.037.242.597 1.004.713 1.199 2.05 3.452 4.1 6.9 6.15 10.35 1.618-7.47 3.234-14.936 4.853-22.406-1.915 2.76-5.165 4.767-7.677 6.931zm-.628 30.869c.493-2.228.985-4.455 1.479-6.68.275-1.239 1.588-4.202.878-5.361l-7.824-12.8c-.942.851-6.377 5.939-5.603 7.163 1.175 1.86 2.35 3.725 3.524 5.588 1.684 2.668 3.363 5.34 5.04 8.017.331.529 1.891 3.951 2.506 4.073zm-1.285 5.765c.508-2.215-.498-2.919-1.747-4.85a3187.367 3187.367 0 0 1-10.189-15.869c-1.182 2.163-4.548 6.579-3.072 9.012 1.466 2.417 2.959 4.816 4.449 7.216 2.79 4.501 5.591 8.999 8.394 13.494.737-2.999 1.477-5.994 2.165-9.003zm-4.944 21.641c.664-2.91 1.331-5.817 1.995-8.727.217-.955-2.754-4.449-3.253-5.239-3.455-5.502-6.913-11.004-10.371-16.506-2.499 11.497 1.301 24.122 11.629 30.472zm17.19-64.673l-4.125 22.549c3.22-2.398 6.436-4.795 9.654-7.19.184-.138 1.062-.597 1.12-.836-.557-1.793-1.383-3.503-2.225-5.177-1.489-2.963-3.714-6.066-4.424-9.346zm-5.651 31.352l-1.203 6.735c.615.122 3.369-2.439 3.881-2.797a2826.65 2826.65 0 0 1 7.732-5.466c1.799-1.27 3.602-2.536 5.4-3.803 1.182-.833-1.879-7.62-2.42-8.768l-12.143 8.813c-1.1.797-1.023 4.035-1.247 5.286zm16.75-1.992a3420.896 3420.896 0 0 1-15.505 10.737c-1.894 1.304-3.097 1.567-3.479 3.807-.52 3.042-.985 6.093-1.453 9.144 4.314-3.075 8.626-6.15 12.935-9.235 2.298-1.646 4.6-3.286 6.879-4.954 2.297-1.681.884-7.048.623-9.499zm-.284 12.761l-15.918 11.251c-.766.539-4.851 2.626-5.016 3.59l-1.515 8.822c11.977-1.898 20.335-12.091 22.449-23.663zm-73.401-23.382c-1.588 1.368-3.18 2.778-4.522 4.395-.04.269.667 1.123.799 1.343 2.295 3.862 4.59 7.724 6.885 11.589 1.812-8.363 3.62-16.724 5.432-25.083-2.146 3.086-5.781 5.332-8.594 7.756zm-.707 34.563l1.655-7.481c.31-1.386 1.781-4.703.985-6.001l-8.761-14.33c-1.056.952-7.139 6.653-6.272 8.021 1.315 2.084 2.632 4.168 3.947 6.255 1.885 2.989 3.767 5.979 5.64 8.978.374.589 2.121 4.42 2.806 4.558zm-1.434 6.454c.568-2.481-.558-3.269-1.959-5.432a3670.209 3670.209 0 0 1-11.407-17.77c-1.325 2.424-5.092 7.365-3.439 10.089 1.64 2.705 3.313 5.392 4.981 8.081 3.124 5.04 6.261 10.077 9.397 15.11.826-3.356 1.655-6.709 2.427-10.078zm-5.539 24.228c.744-3.256 1.487-6.515 2.234-9.771.241-1.067-3.085-4.981-3.642-5.866-3.868-6.159-7.742-12.319-11.613-18.479-2.797 12.871 1.46 27.008 13.021 34.116zm19.247-72.408c-1.539 8.415-3.078 16.83-4.62 25.248 3.602-2.684 7.206-5.367 10.811-8.055.205-.152 1.188-.67 1.255-.933-.621-2.008-1.548-3.923-2.491-5.796-1.665-3.317-4.159-6.792-4.955-10.464zm-6.328 35.101c-.446 2.513-.896 5.028-1.346 7.543.688.138 3.772-2.729 4.342-3.133 2.883-2.048 5.769-4.086 8.657-6.12l6.046-4.26c1.325-.934-2.102-8.531-2.711-9.816l-13.596 9.865c-1.226.896-1.141 4.522-1.392 5.921zm18.758-2.231a3741.851 3741.851 0 0 1-17.359 12.022c-2.12 1.46-3.467 1.754-3.895 4.263-.582 3.406-1.105 6.821-1.628 10.239a9762.93 9762.93 0 0 0 14.482-10.34c2.57-1.842 5.15-3.679 7.702-5.548 2.568-1.878.986-7.888.698-10.636zm-.322 14.287c-5.939 4.198-11.879 8.399-17.821 12.598-.854.606-5.432 2.938-5.615 4.019-.562 3.292-1.129 6.585-1.694 9.877 13.408-2.121 22.762-13.535 25.13-26.494zm-52.812-227.802c-.061.159.255.78.304.934.875 2.681 1.75 5.361 2.622 8.042 2.258-4.872 4.517-9.74 6.774-14.611-1.737 1.594-4.271 2.472-6.328 3.568-1.159.62-2.325 1.266-3.372 2.067zm-2.898 15.821c.146.413.688 2.999 1.09 3.179.679-1.45 1.361-2.901 2.041-4.351.379-.808 1.734-2.635 1.429-3.541-1.132-3.326-2.265-6.652-3.394-9.979-.777.438-5.285 3.09-4.942 4.048.521 1.457 1.038 2.916 1.558 4.373.741 2.088 1.484 4.178 2.218 6.271zm-.675 6.931c.688-1.441.106-2.078-.453-3.596-1.53-4.143-3.039-8.295-4.544-12.448-1.145 1.301-4.128 3.81-3.495 5.704.634 1.882 1.288 3.757 1.94 5.633 1.221 3.516 2.448 7.029 3.678 10.542.97-1.937 1.937-3.877 2.874-5.835zm-4.012 8.399c.297-.621-1.203-3.473-1.423-4.091-1.524-4.302-3.045-8.607-4.569-12.91-3.482 7.497-2.821 16.735 3.284 22.678a6010.06 6010.06 0 0 1 2.708-5.677zm21.352-25.033c-.104-1.316-.41-2.613-.729-3.893-.566-2.261-1.612-4.73-1.595-7.087l-6.297 14.823c2.576-1.147 5.149-2.295 7.727-3.446.144-.064.814-.245.894-.397zm.325 2.038l-9.679 4.17c-.878.376-1.325 2.61-1.671 3.434-.621 1.478-1.242 2.956-1.86 4.434.4.177 2.687-1.154 3.091-1.322 2.044-.856 4.094-1.708 6.141-2.558 1.43-.594 2.858-1.184 4.287-1.775.942-.389-.114-5.515-.309-6.383zm.443 8.815c-4.091 1.665-8.183 3.333-12.279 4.976-1.5.6-2.365.597-2.972 2.075-.823 2.007-1.612 4.024-2.405 6.043 3.431-1.444 6.86-2.889 10.288-4.339 1.827-.774 3.66-1.545 5.478-2.338 1.832-.799 1.688-4.694 1.89-6.417zm-2.163 8.706c-4.214 1.753-8.428 3.51-12.644 5.263-.606.254-3.73 1.053-3.99 1.689l-2.396 5.814c8.503.542 15.801-5.159 19.03-12.766zM302.71 3.381c-.037.095.153.468.184.56.526 1.609 1.05 3.216 1.573 4.822 1.355-2.922 2.708-5.845 4.063-8.764-1.041.958-2.564 1.481-3.795 2.142-.699.371-1.398.756-2.025 1.24zm-4.005 3.103c.312.875.625 1.748.934 2.623a765.31 765.31 0 0 1 1.331 3.761c.086.248.413 1.799.655 1.906.406-.869.816-1.741 1.224-2.61.227-.484 1.04-1.582.856-2.124-.679-1.995-1.358-3.99-2.034-5.985-.466.262-3.171 1.857-2.966 2.429zm-3.232 4.342c.38 1.129.771 2.252 1.163 3.378.731 2.108 1.469 4.216 2.206 6.325a226.792 226.792 0 0 0 1.724-3.5c.413-.866.063-1.246-.272-2.157-.918-2.485-1.821-4.976-2.727-7.466-.683.78-2.476 2.285-2.094 3.42zm1.06 14.645l1.624-3.406c.178-.373-.722-2.084-.854-2.454-.911-2.583-1.826-5.162-2.741-7.745-2.087 4.499-1.689 10.04 1.971 13.605zM309.574.465c-1.261 2.965-2.518 5.927-3.778 8.893l4.636-2.065c.089-.04.492-.147.538-.239-.064-.79-.245-1.567-.438-2.335-.34-1.359-.97-2.84-.958-4.254zm-4.217 10.309c-.525.226-.795 1.566-1 2.059l-1.117 2.659c.242.107 1.609-.691 1.854-.792a1689.678 1689.678 0 0 1 6.258-2.598c.562-.232-.07-3.308-.187-3.828-1.937.832-3.873 1.668-5.808 2.5zm4.936 6.637c1.099-.477 1.013-2.815 1.135-3.849-2.454 1-4.908 1.998-7.365 2.983-.899.361-1.42.358-1.784 1.245-.495 1.203-.967 2.415-1.441 3.626 2.057-.866 4.116-1.732 6.172-2.604 1.095-.464 2.191-.926 3.283-1.401zm-11.576 9.03c5.101.324 9.477-3.094 11.414-7.659l-7.583 3.158c-.364.15-2.237.63-2.393 1.013-.48 1.163-.96 2.325-1.438 3.488zm46.571 9.783c-1.319.511-2.926.45-4.314.612-.784.092-1.576.199-2.338.419-.07.077-.028.493-.034.587l-.287 5.064c2.324-2.226 4.646-4.454 6.973-6.682zm-11.512 2.466l-.083 2.782a759.29 759.29 0 0 1-.129 3.99c-.009.263-.269 1.827-.085 2.013.697-.661 1.396-1.325 2.09-1.986.389-.367 1.545-1.092 1.569-1.667.096-2.105.188-4.211.282-6.316-.526.077-3.626.576-3.644 1.184zm-4.59 2.868c-.059 1.19-.102 2.381-.147 3.571-.086 2.23-.165 4.461-.245 6.692.965-.872 1.929-1.744 2.88-2.634.701-.655.514-1.139.532-2.108.049-2.65.113-5.297.178-7.947-.922.479-3.137 1.229-3.198 2.426zm-4.34 14.027l2.754-2.58c.3-.282.086-2.204.099-2.598.089-2.735.177-5.474.263-8.21-3.581 3.43-5.227 8.737-3.116 13.388zm19.56-11.882c.095-.006.512.04.588-.027.229-.759.343-1.551.443-2.332.178-1.386.132-2.996.655-4.309-2.252 2.304-4.505 4.605-6.754 6.909 1.687-.082 3.379-.162 5.068-.241zm-7.674 2.956c-.671.692-1.341 1.38-2.008 2.072.187.187 1.754-.058 2.014-.064 1.331-.034 2.659-.061 3.99-.089.927-.018 1.854-.04 2.784-.055.609-.012 1.139-3.106 1.218-3.635l-6.318.22c-.573.018-1.31 1.168-1.68 1.551zm-6.402 6.714c2.231-.058 4.465-.117 6.695-.181 1.19-.034 2.381-.064 3.571-.11 1.196-.046 1.968-2.255 2.457-3.173-2.649.04-5.297.076-7.946.101-.971.009-1.45-.184-2.114.511-.898.939-1.779 1.896-2.663 2.852zm1.405 1.11c-.396.009-2.313-.227-2.599.073l-2.606 2.727c4.633 2.157 9.954.563 13.418-2.98-2.74.058-5.475.119-8.213.18zm29.182.294c-1.318.511-2.928.45-4.314.612-.783.092-1.576.199-2.338.419-.07.077-.027.493-.033.587-.095 1.689-.193 3.378-.288 5.064 2.326-2.227 4.648-4.454 6.973-6.682zm-11.511 2.466l-.082 2.782c-.04 1.331-.083 2.659-.129 3.99-.009.263-.27 1.827-.086 2.013.698-.661 1.396-1.325 2.091-1.986.388-.367 1.545-1.092 1.569-1.667.095-2.105.187-4.21.281-6.316-.526.077-3.626.575-3.644 1.184zm-4.59 2.867c-.058 1.19-.101 2.381-.146 3.571-.086 2.23-.165 4.461-.245 6.692.964-.873 1.928-1.745 2.88-2.635.7-.655.514-1.139.532-2.108.049-2.65.113-5.297.178-7.947-.926.482-3.14 1.231-3.199 2.427zm-1.585 11.448c.3-.282.086-2.203.098-2.598.089-2.735.175-5.474.264-8.21-3.58 3.427-5.227 8.736-3.115 13.388l2.753-2.58zm17.394-9.33c.229-.759.342-1.551.443-2.332.178-1.386.132-2.996.654-4.309-2.252 2.304-4.504 4.605-6.753 6.909l5.067-.238c.095-.006.511.04.589-.03zm-8.266 2.983l-2.007 2.072c.187.187 1.753-.058 2.013-.064 1.331-.034 2.659-.061 3.99-.088.928-.019 1.854-.04 2.785-.055.608-.012 1.138-3.106 1.218-3.635l-6.319.22c-.569.018-1.307 1.168-1.68 1.55zm-6.399 6.714c2.23-.058 4.465-.116 6.695-.181 1.19-.034 2.381-.064 3.571-.11 1.199-.046 1.968-2.255 2.457-3.173-2.65.04-5.3.076-7.947.101-.97.009-1.45-.184-2.114.511-.896.94-1.781 1.898-2.662 2.852zm1.405 1.111c-.395.009-2.313-.227-2.598.073l-2.607 2.727c4.633 2.157 9.954.563 13.418-2.98-2.739.058-5.477.119-8.213.18zm-40.729-38.767c-.043.117.189.563.227.673l1.965 5.805 4.792-10.64c-1.246 1.169-3.075 1.824-4.557 2.634-.835.46-1.674.937-2.427 1.528zm-1.245.829c-.56.324-3.804 2.283-3.55 2.974.389 1.053.777 2.103 1.163 3.155a2748.28 2748.28 0 0 1 1.658 4.525c.11.297.523 2.167.814 2.295l1.444-3.17c.269-.587 1.236-1.925 1.007-2.577-.844-2.401-1.691-4.8-2.536-7.202zm-7.396 8.259c.475 1.359.964 2.711 1.451 4.064.911 2.537 1.829 5.073 2.747 7.61a296.102 296.102 0 0 0 2.035-4.253c.49-1.049.062-1.505-.354-2.601-1.142-2.99-2.268-5.985-3.391-8.981-.82.954-2.962 2.796-2.488 4.161zm3.393 13.54c.208-.453-.899-2.506-1.064-2.953l-3.415-9.318c-2.463 5.459-1.909 12.148 2.559 16.405.642-1.376 1.282-2.754 1.92-4.134zm13.501-26.245l-4.446 10.79c1.857-.854 3.715-1.704 5.569-2.558.107-.049.591-.184.646-.297-.086-.952-.318-1.891-.56-2.812-.426-1.631-1.203-3.413-1.209-5.123zm-4.957 12.512c-.634.282-.939 1.9-1.182 2.5-.438 1.074-.875 2.151-1.312 3.226.294.125 1.938-.857 2.228-.982 1.476-.637 2.953-1.27 4.432-1.903l3.093-1.322c.677-.288-.128-3.994-.275-4.621-2.33 1.037-4.659 2.068-6.984 3.102zm-5.318 12.914a2866.8 2866.8 0 0 0 7.421-3.229c1.318-.575 2.638-1.147 3.95-1.738 1.322-.594 1.188-3.415 1.318-4.664-2.949 1.239-5.899 2.479-8.858 3.703-1.08.447-1.707.453-2.136 1.527-.585 1.46-1.139 2.928-1.695 4.401zm11.193-3.306c-3.038 1.304-6.08 2.61-9.119 3.917-.438.187-2.692.792-2.876 1.254-.562 1.411-1.126 2.822-1.689 4.232 6.163.325 11.405-3.864 13.684-9.403zm27.528 40.09c.036.119.489.336.587.401l5.062 3.458-2.567-11.383c-.294 1.683-1.361 3.308-2.057 4.847-.395.865-.777 1.753-1.025 2.677zm-1.545 5.921c.942.606 1.885 1.215 2.827 1.824 1.35.872 2.699 1.744 4.046 2.62.267.174 1.72 1.417 2.028 1.343a889.215 889.215 0 0 1-.749-3.403c-.138-.63-.169-2.28-.744-2.662l-6.358-4.232c-.255.593-1.669 4.109-1.05 4.51zm3.709 8.914c2.255 1.478 4.514 2.956 6.771 4.431-.303-1.542-.603-3.084-.93-4.621-.242-1.132-.857-1.242-1.849-1.863-2.708-1.705-5.41-3.421-8.109-5.141-.082 1.251-.688 4.012.515 4.82 1.193.798 2.395 1.584 3.602 2.374zm8.197 10.86c-.317-1.484-.633-2.971-.951-4.456-.104-.486-2.228-1.462-2.626-1.72-2.775-1.799-5.554-3.595-8.329-5.395 1.316 5.842 5.777 10.854 11.906 11.571zm.248-28.269c-.643-.71-1.389-1.322-2.136-1.912-1.325-1.05-3.018-2.004-4.048-3.366.979 3.764 1.955 7.531 2.935 11.294l2.913-5.392c.052-.1.357-.501.336-.624zm-1.178 13.776c.309-.077 1.034-1.848 1.19-2.124.795-1.396 1.597-2.791 2.396-4.183.561-.973 1.117-1.943 1.677-2.916.367-.64-2.503-3.115-2.998-3.528l-3.715 6.674c-.337.606.395 2.084.557 2.708l.893 3.369zm6.053.401c.707-1.251 1.42-2.503 2.114-3.764.701-1.267-1.104-3.442-1.75-4.52-1.613 2.763-3.226 5.53-4.854 8.284-.597 1.007-1.093 1.386-.789 2.503.413 1.515.854 3.023 1.291 4.535 1.329-2.344 2.66-4.688 3.988-7.038zm2.968-2.328l-4.933 8.611c-.235.413-1.677 2.252-1.545 2.732l1.193 4.397c5.123-3.445 6.79-9.945 5.285-15.74zm71.852 73.121c-1.778 1.634-4.376 2.531-6.481 3.654-1.19.633-2.384 1.294-3.455 2.117-.064.166.261.799.312.955.896 2.745 1.79 5.489 2.687 8.234 2.313-4.984 4.624-9.972 6.937-14.96zm-16.772 11.072c.532 1.493 1.065 2.983 1.595 4.477.762 2.139 1.521 4.278 2.273 6.423.149.422.703 3.072 1.116 3.253a2571.46 2571.46 0 0 0 2.091-4.456c.389-.826 1.777-2.699 1.462-3.623-1.159-3.406-2.316-6.812-3.476-10.217-.793.443-5.41 3.16-5.061 4.143zm3.176 17.995c.706-1.475.109-2.126-.463-3.681-1.566-4.244-3.108-8.495-4.65-12.745-1.172 1.334-4.229 3.901-3.577 5.841.646 1.928 1.318 3.846 1.985 5.768 1.252 3.602 2.507 7.197 3.764 10.796.992-1.989 1.983-3.974 2.941-5.979zm-4.106 8.602c.303-.636-1.233-3.556-1.457-4.192-1.561-4.407-3.118-8.813-4.679-13.219-3.564 7.674-2.889 17.136 3.363 23.222.921-1.937 1.845-3.874 2.773-5.811zm21.863-25.634c-.107-1.347-.419-2.678-.747-3.984-.578-2.316-1.652-4.844-1.634-7.258-2.147 5.062-4.299 10.12-6.45 15.178 2.638-1.175 5.272-2.35 7.91-3.528.154-.068.842-.252.921-.408zm.334 2.087c-3.306 1.423-6.607 2.849-9.912 4.271-.899.386-1.355 2.671-1.71 3.516-.637 1.512-1.271 3.026-1.906 4.538.413.184 2.751-1.181 3.164-1.353 2.096-.878 4.191-1.748 6.291-2.62 1.463-.606 2.929-1.215 4.391-1.817.961-.396-.119-5.644-.318-6.535zm.449 9.027c-4.189 1.705-8.378 3.412-12.576 5.095-1.536.615-2.421.612-3.042 2.124-.845 2.053-1.652 4.122-2.463 6.19 3.513-1.478 7.025-2.959 10.535-4.443 1.873-.792 3.745-1.582 5.609-2.393 1.88-.82 1.732-4.81 1.937-6.573zm-2.208 8.914c-4.314 1.796-8.633 3.593-12.947 5.392-.621.26-3.818 1.077-4.085 1.729-.817 1.986-1.634 3.969-2.454 5.955 8.705.553 16.174-5.288 19.486-13.076zm55.037 8.917c-2.097-.878-3.979-2.806-5.814-4.195-1.037-.786-2.099-1.563-3.234-2.164-.159.016-.517.579-.621.692a5031.124 5031.124 0 0 0-5.34 5.952c4.999-.099 10.003-.193 15.009-.285zm-23.263-2.008c-.269.315-2.126 1.956-2.087 2.399l4.483-.061c.832-.012 2.943.419 3.537-.263l6.563-7.509c-.713-.517-4.944-3.455-5.568-2.72l-2.843 3.354a1565.68 1565.68 0 0 1-4.085 4.8zm-5.134-5.611c-2.302 2.668-4.6 5.342-6.895 8.017 2.025.024 4.048.052 6.074.04 1.49-.009 1.741-.82 2.717-2.001 2.672-3.229 5.358-6.441 8.045-9.651-1.585-.468-5-2.084-6.248-.664-1.239 1.41-2.466 2.835-3.693 4.259zm-15.368 8.152l5.866-.037c.64-.003 2.273-2.635 2.678-3.109l8.412-9.881c-7.705.137-14.924 4.829-16.956 13.027zm35.325 7.732c.122.104.578.64.737.643 1.022-.676 1.94-1.53 2.834-2.387 1.581-1.515 3.108-3.565 5.036-4.59l-14.963.808c2.121 1.842 4.239 3.684 6.356 5.526zm-8.617-5.147c-.71-.633-2.732-.055-3.562-.006-1.487.089-2.978.175-4.465.264.04.446 2.173 1.94 2.497 2.233a2042.4 2042.4 0 0 1 4.905 4.474l3.418 3.127c.746.686 4.434-2.542 5.052-3.106-2.616-2.329-5.232-4.657-7.845-6.986zm-11.882.49c-2.014.135-4.021.309-6.028.48 2.751 2.491 5.505 4.981 8.262 7.469 1.473 1.325 2.938 2.656 4.422 3.966 1.493 1.319 4.6-.536 6.093-1.114a2733.739 2733.739 0 0 1-9.697-9.006c-1.176-1.104-1.567-1.896-3.052-1.795zm-8.636.575l-5.835.386c3.467 7.999 11.463 12.133 19.144 11.716l-10.099-9.208c-.486-.443-2.57-2.937-3.21-2.894zM388.036 78.192c-.046.117.184.566.22.676.634 1.943 1.268 3.883 1.9 5.826 1.638-3.528 3.271-7.059 4.908-10.587-1.257 1.157-3.097 1.79-4.587 2.585-.838.451-1.685.915-2.441 1.5zm-4.838 3.748l1.129 3.167c.539 1.515 1.074 3.03 1.609 4.544.104.3.499 2.172.79 2.301.492-1.053.985-2.103 1.48-3.155.275-.584 1.258-1.909 1.034-2.564-.819-2.412-1.64-4.82-2.46-7.231-.562.322-3.83 2.244-3.582 2.938zm-3.905 5.246c.459 1.365.933 2.72 1.404 4.082.884 2.549 1.774 5.095 2.665 7.641.701-1.404 1.404-2.812 2.081-4.229.499-1.043.076-1.505-.327-2.604-1.108-3.002-2.2-6.01-3.293-9.018-.825.939-2.989 2.754-2.53 4.128zm1.283 17.689l1.964-4.112c.215-.45-.872-2.519-1.031-2.965-1.104-3.118-2.206-6.236-3.311-9.354-2.525 5.431-2.044 12.123 2.378 16.431zm15.749-30.208c-1.521 3.58-3.041 7.16-4.565 10.741l5.597-2.497c.107-.049.594-.178.649-.291-.077-.955-.297-1.895-.526-2.818-.408-1.637-1.167-3.427-1.155-5.135zm-5.092 12.454c-.636.272-.957 1.891-1.208 2.488l-1.35 3.213c.29.128 1.946-.835 2.239-.958 1.481-.621 2.966-1.236 4.449-1.854 1.038-.428 2.072-.86 3.109-1.288.68-.282-.083-3.994-.227-4.624a7394.5 7394.5 0 0 1-7.012 3.023zm5.964 8.017c1.328-.578 1.225-3.403 1.371-4.648-2.965 1.206-5.927 2.414-8.898 3.604-1.086.435-1.714.432-2.154 1.502-.597 1.454-1.169 2.917-1.741 4.379 2.485-1.046 4.973-2.093 7.454-3.146a453.881 453.881 0 0 0 3.968-1.691zm-12.249 6.693l-1.734 4.213c6.159.395 11.447-3.739 13.788-9.25-3.054 1.27-6.108 2.543-9.162 3.815-.441.184-2.702.763-2.892 1.222zm60.392 51.576c-1.255-1.16-2.038-2.938-2.953-4.357-.514-.802-1.053-1.606-1.695-2.313-.119-.034-.548.229-.655.275-1.885.789-3.767 1.582-5.651 2.371 3.65 1.34 7.304 2.68 10.954 4.024zm-16.243-7.827c-.29.128-2.126.673-2.23.976 1.087.407 2.176.811 3.266 1.218.605.227 2.007 1.099 2.641.82 2.335-1.013 4.669-2.029 7.004-3.042-.361-.535-2.546-3.632-3.216-3.329-1.022.462-2.044.924-3.066 1.383-1.464.658-2.929 1.319-4.399 1.974zm-9.43-1.806c1.46.584 2.916 1.169 4.385 1.729 1.084.413 1.509-.046 2.571-.539 2.9-1.35 5.811-2.684 8.721-4.018-1.007-.75-2.996-2.757-4.327-2.185-1.322.566-2.635 1.153-3.953 1.735a1678.906 1678.906 0 0 0-7.397 3.278zm-6.175-2.292c1.42.542 2.84 1.081 4.26 1.622.465.177 2.438-1.074 2.87-1.27 3.017-1.355 6.034-2.711 9.052-4.063-5.619-2.076-12.254-1.047-16.182 3.711zm31.392 13.228c-3.693-1.224-7.387-2.448-11.077-3.669.982 1.793 1.965 3.583 2.946 5.376.056.101.227.578.343.624.942-.153 1.864-.45 2.767-.756 1.597-.546 3.317-1.449 5.021-1.575zm-15.407-5.061c-1.104-.361-2.209-.723-3.311-1.081-.104.3.991 1.87 1.138 2.154.741 1.426 1.476 2.855 2.213 4.284.511.998 1.025 1.995 1.536 2.993.336.655 3.975-.41 4.59-.603-1.196-2.246-2.39-4.495-3.586-6.744-.328-.611-1.965-.801-2.58-1.003zm-6.172-2.01c-1.496-.478-3.002-.927-4.508-1.377 1.246 2.393 2.494 4.783 3.746 7.173.667 1.273 1.331 2.552 2.013 3.819.686 1.276 3.492.942 4.746.985-1.444-2.855-2.892-5.71-4.32-8.574-.526-1.05-.572-1.674-1.677-2.026zm-6.426-2.047l-4.343-1.386c.11 6.172 4.664 11.102 10.35 12.986-1.519-2.94-3.033-5.878-4.551-8.819-.216-.422-.982-2.631-1.456-2.781zm41.555 29.428c1.343-3.65 2.684-7.301 4.026-10.955-1.159 1.254-2.938 2.038-4.357 2.953-.802.518-1.606 1.053-2.312 1.695-.034.12.229.548.275.655.786 1.885 1.578 3.767 2.368 5.652zm-3.801 5.287c.129.291.673 2.124.977 2.231.403-1.089.811-2.176 1.218-3.265.227-.606 1.099-2.007.819-2.641l-3.041-7.004c-.536.361-3.633 2.546-3.329 3.216a3151.892 3151.892 0 0 1 3.356 7.463zm-5.089 2.035a3770.54 3770.54 0 0 0 3.28 7.396 275.056 275.056 0 0 0 1.729-4.385c.413-1.081-.046-1.506-.539-2.571-1.35-2.901-2.684-5.811-4.018-8.721-.75 1.006-2.757 2.996-2.185 4.327.567 1.322 1.152 2.638 1.733 3.954zm.989 13.571c.542-1.419 1.08-2.839 1.622-4.259.178-.465-1.074-2.436-1.27-2.87-1.356-3.017-2.708-6.035-4.064-9.052-2.071 5.618-1.046 12.252 3.712 16.181zm14.932-23.259c.102-.055.576-.227.625-.343-.153-.942-.45-1.863-.756-2.766-.542-1.601-1.444-3.32-1.573-5.024-1.224 3.693-2.448 7.383-3.669 11.077 1.79-.982 3.583-1.961 5.373-2.944zm-6.761 7.274c-.361 1.105-.723 2.207-1.081 3.311.304.104 1.87-.991 2.154-1.138 1.427-.741 2.855-1.475 4.284-2.212.998-.514 1.995-1.025 2.993-1.536.654-.336-.41-3.975-.604-4.59-2.246 1.197-4.495 2.39-6.744 3.586-.615.327-.804 1.964-1.002 2.579zm.011 4.498c-1.047.523-1.671.572-2.022 1.674a241.491 241.491 0 0 0-1.377 4.507c2.393-1.246 4.782-2.494 7.173-3.746 1.272-.667 2.549-1.331 3.818-2.014 1.276-.685.942-3.491.985-4.746-2.861 1.449-5.715 2.896-8.577 4.325zm-1.288 6.643c-.423.217-2.632.982-2.781 1.457l-1.387 4.342c6.172-.11 11.102-4.664 12.986-10.349l-8.818 4.55zM311.903 71.081c-.059.15.238.731.284.875l2.461 7.54c2.117-4.568 4.234-9.134 6.353-13.7-1.628 1.497-4.006 2.316-5.934 3.345-1.09.581-2.185 1.187-3.164 1.94zm-1.625 1.055c-.729.41-4.957 2.898-4.636 3.797l1.459 4.101c.698 1.958 1.393 3.92 2.081 5.881.138.389.646 2.812 1.022 2.98l1.915-4.082c.355-.756 1.628-2.473 1.341-3.32-1.062-3.12-2.124-6.239-3.182-9.357zm-9.688 10.582c.59 1.766 1.208 3.522 1.817 5.282 1.145 3.295 2.295 6.591 3.448 9.887.909-1.821 1.817-3.638 2.693-5.471.646-1.353.101-1.949-.423-3.372a2091.399 2091.399 0 0 1-4.26-11.671c-1.072 1.217-3.871 3.57-3.275 5.345zm4.199 17.57c.278-.581-1.13-3.256-1.335-3.837-1.426-4.036-2.854-8.069-4.283-12.105-3.266 7.029-2.645 15.692 3.078 21.264.847-1.775 1.692-3.55 2.54-5.322zm11.936-19.868c2.414-1.077 4.829-2.154 7.243-3.229.138-.061.769-.232.842-.373-.099-1.233-.383-2.451-.683-3.648-.529-2.121-1.512-4.434-1.496-6.646-1.97 4.63-3.938 9.263-5.906 13.896zm-.685 2.218c-.823.355-1.242 2.448-1.566 3.219l-1.744 4.155c.376.168 2.519-1.08 2.897-1.239 1.919-.805 3.838-1.6 5.759-2.399 1.341-.557 2.681-1.111 4.021-1.665.881-.364-.107-5.168-.291-5.985-3.027 1.307-6.053 2.611-9.076 3.914zm-7.066 16.632c3.216-1.353 6.433-2.708 9.646-4.07 1.714-.726 3.43-1.448 5.138-2.191 1.72-.75 1.585-4.4 1.771-6.016-3.834 1.561-7.671 3.124-11.515 4.664-1.404.563-2.216.56-2.788 1.946a362.899 362.899 0 0 0-2.252 5.667zm14.529-4.116c-3.951 1.646-7.904 3.29-11.854 4.936-.569.236-3.498.988-3.742 1.582-.747 1.818-1.497 3.635-2.246 5.453 7.97.507 14.813-4.838 17.842-11.971zm79.325 57.579c-.493-1.221-1.01-2.448-1.698-3.574-.153-.08-.802.171-.961.205-2.757.584-5.518 1.172-8.274 1.756 4.605 2.763 9.208 5.523 13.813 8.283-1.403-1.893-2.005-4.509-2.88-6.67zm-6.136-10.758c-1.505.361-3.008.726-4.513 1.086-2.158.517-4.315 1.031-6.473 1.542-.425.101-3.054.367-3.274.746 1.371.83 2.742 1.662 4.113 2.491.762.462 2.436 2.004 3.369 1.796l10.281-2.316c-.354-.82-2.515-5.584-3.503-5.345zm-14.186 1.153c4.284-1.083 8.57-2.142 12.857-3.198-1.172-1.276-3.351-4.511-5.303-4.079-1.937.429-3.871.881-5.805 1.331-3.626.842-7.249 1.689-10.872 2.54 1.827 1.169 3.653 2.338 5.499 3.476 1.363.836 2.057.325 3.624-.07zm-16.903-8.108l5.354 3.295c.585.361 3.58-.829 4.22-.982l13.323-3.176c-7.083-4.254-16.343-4.575-22.897.863zm39.149 26.034l-14.073-7.833 2.607 8.048c.049.153.159.841.303.933 1.319.034 2.644-.128 3.947-.312 2.308-.322 4.876-1.102 7.216-.836zm-19.584-10.836c-1.404-.774-2.807-1.548-4.211-2.319-.22.382.86 2.791.985 3.213.637 2.124 1.264 4.253 1.892 6.38l1.312 4.452c.287.976 5.492.471 6.38.367-1.04-3.357-2.081-6.71-3.124-10.067-.28-.915-2.45-1.594-3.234-2.026zm-10.376 3.342c.575 1.9 1.147 3.8 1.744 5.694.601 1.907 4.489 2.179 6.182 2.558a2340.944 2340.944 0 0 1-3.645-12.739c-.44-1.554-.343-2.414-1.747-3.173a398.622 398.622 0 0 0-5.756-3.033 2855.6 2855.6 0 0 0 3.222 10.693zm-.505 5.184c-1.297-4.376-2.598-8.755-3.896-13.13-.187-.631-.651-3.819-1.254-4.146-1.843-.998-3.685-1.998-5.529-2.999-1.439 8.396 3.457 16.257 10.679 20.275zm46.218-44.251c-.147.006-.523.465-.624.557l-5.389 4.801c4.58.098 9.158.196 13.739.296-1.843-.811-3.394-2.494-4.954-3.724-.884-.697-1.786-1.389-2.772-1.93zm-6.328-3.446c-.961.906-1.922 1.808-2.886 2.714-1.38 1.294-2.76 2.588-4.144 3.88-.272.254-2.108 1.563-2.111 1.94 1.368.037 2.732.07 4.101.107.762.021 2.653.456 3.256-.095l6.637-6.068c-.606-.458-4.223-3.074-4.853-2.478zm-7.5-1.735c-1.255 1.138-2.497 2.292-3.739 3.442a4218.79 4218.79 0 0 0-6.983 6.481c1.849.092 3.696.187 5.545.248 1.361.046 1.661-.627 2.656-1.582 2.714-2.613 5.443-5.211 8.173-7.809-1.408-.449-4.391-1.927-5.652-.78zm-18.476 9.731c1.787.058 3.574.116 5.364.178.588.018 2.305-2.13 2.711-2.513 2.843-2.662 5.686-5.324 8.528-7.989-7.053-.157-14.049 3.522-16.603 10.324zm32.234 8.302c.991-.532 1.903-1.215 2.79-1.9 1.573-1.215 3.146-2.879 4.994-3.672l-13.739.147c1.778 1.619 3.556 3.241 5.337 4.859.1.095.471.557.618.566zm-11.31-5.319c-1.368.021-2.736.04-4.101.062-.003.376 1.82 1.704 2.09 1.961 1.371 1.307 2.735 2.616 4.101 3.926l2.854 2.745c.624.6 4.269-1.977 4.884-2.427-2.19-2.047-4.382-4.091-6.573-6.138-.595-.554-2.493-.137-3.255-.129zm3.087 9.63c-2.702-2.628-5.404-5.254-8.091-7.897-.981-.967-1.275-1.644-2.638-1.613-1.848.042-3.699.116-5.548.189a4799.6 4799.6 0 0 0 6.913 6.558c1.23 1.163 2.457 2.332 3.699 3.482 1.256 1.16 4.252-.284 5.665-.719zm-15.982-6.79c-.403-.389-2.099-2.555-2.684-2.543-1.787.04-3.577.08-5.364.116 2.485 6.83 9.438 10.582 16.49 10.505-2.814-2.689-5.627-5.385-8.442-8.078zm-24.009 62.491c-1.925-1.361-3.316-3.657-4.822-5.435-.851-1.003-1.726-2.01-2.732-2.861-.169-.028-.71.413-.848.496l-7.308 4.26c5.236 1.181 10.472 2.363 15.71 3.54zm-14.02-13.73c-1.316.814-2.629 1.631-3.947 2.445a1620.258 1620.258 0 0 1-5.664 3.491c-.374.23-2.788 1.304-2.877 1.735 1.561.358 3.125.719 4.686 1.08.868.199 2.943 1.142 3.761.649 3.014-1.806 6.024-3.614 9.039-5.422-.592-.667-4.136-4.513-4.998-3.978zm-8.213-3.739c-1.708 1.013-3.4 2.05-5.099 3.082a4495.26 4495.26 0 0 0-9.531 5.817c2.102.536 4.201 1.074 6.31 1.579 1.555.371 2.053-.333 3.418-1.199 3.727-2.369 7.47-4.719 11.209-7.065-1.509-.846-4.587-3.236-6.307-2.214zm-23.492 6.873c2.041.483 4.079.967 6.12 1.454.67.159 3.143-1.91 3.699-2.255l11.656-7.188c-8.06-1.825-16.953.77-21.475 7.989zm35.092 17.047c1.264-.379 2.469-.952 3.65-1.533 2.09-1.028 4.284-2.573 6.594-3.054l-15.816-3.033c1.664 2.277 3.329 4.55 4.996 6.827.092.129.41.75.576.793zm-1.921.75l-6.12-8.583c-.554-.777-2.831-.744-3.706-.909-1.575-.293-3.151-.59-4.725-.884-.089.432 1.692 2.381 1.943 2.742 1.27 1.818 2.533 3.642 3.794 5.465.882 1.273 1.76 2.546 2.642 3.819.575.834 5.36-1.277 6.172-1.65zm-15.98-8.666c-.902-1.34-1.083-2.185-2.653-2.466-2.136-.382-4.274-.728-6.417-1.077 2.133 3.051 4.272 6.099 6.411 9.144 1.142 1.625 2.279 3.25 3.439 4.862 1.166 1.622 4.945.661 6.671.496a3020.063 3020.063 0 0 1-7.451-10.959zm-1.512 10.679l-7.812-11.249c-.373-.539-1.814-3.424-2.49-3.546-2.062-.371-4.128-.744-6.19-1.117 1.263 8.427 8.374 14.358 16.492 15.912zm122.33 66.721c-1.402-1.897-2.005-4.51-2.877-6.671-.492-1.221-1.01-2.448-1.698-3.574-.153-.08-.802.171-.961.205-2.757.584-5.517 1.172-8.274 1.756 4.602 2.76 9.205 5.523 13.81 8.284zm-9.015-17.43c-1.502.361-3.008.725-4.513 1.086-2.158.517-4.315 1.031-6.473 1.542-.425.101-3.054.367-3.274.747 1.371.83 2.742 1.662 4.113 2.491.762.462 2.436 2.004 3.369 1.796l10.281-2.316c-.354-.82-2.515-5.585-3.503-5.346zm-23.308-2.256c1.827 1.169 3.653 2.338 5.499 3.476 1.358.838 2.056.328 3.623-.067 4.284-1.083 8.571-2.142 12.857-3.198-1.172-1.276-3.351-4.51-5.303-4.079-1.937.428-3.871.881-5.805 1.331a4237.27 4237.27 0 0 0-10.871 2.537zm-7.781-4.7c1.783 1.099 3.57 2.197 5.354 3.296.585.361 3.58-.83 4.22-.982 4.44-1.059 8.88-2.118 13.323-3.176-7.084-4.254-16.343-4.575-22.897.862zm27.986 27.182c1.319.034 2.644-.128 3.947-.312 2.308-.321 4.875-1.102 7.219-.835-4.691-2.61-9.382-5.224-14.073-7.833l2.607 8.047c.049.15.157.839.3.933zm-11.643-11.092c.637 2.124 1.264 4.253 1.892 6.38l1.312 4.452c.288.976 5.493.471 6.38.367-1.04-3.357-2.08-6.71-3.124-10.067-.281-.912-2.454-1.594-3.234-2.022-1.404-.774-2.806-1.548-4.211-2.32-.223.38.86 2.791.985 3.21zm-5.413 8.146c.6 1.906 4.489 2.179 6.182 2.558a2340.944 2340.944 0 0 1-3.645-12.739c-.44-1.555-.343-2.415-1.747-3.173a388.85 388.85 0 0 0-5.756-3.032c1.07 3.565 2.145 7.126 3.225 10.691.575 1.897 1.147 3.801 1.741 5.695zm-2.247-.512c-1.297-4.375-2.598-8.754-3.895-13.13-.188-.63-.652-3.819-1.255-4.146-1.843-.998-3.685-1.998-5.529-2.999-1.438 8.396 3.458 16.255 10.679 20.275zm-32.2 234.296c.067.327.129 1.769.404 1.995 2.708.382 5.475.352 8.2.281 4.829-.122 10.301-1.136 15.062-.034-9.052-6.478-18.105-12.952-27.157-19.428 1.166 5.729 2.328 11.457 3.491 17.186zm-14.143-24.655c-2.711-1.922-5.422-3.844-8.133-5.763-.542.731 1.123 5.952 1.282 6.846.811 4.525 1.612 9.055 2.408 13.583.557 3.161 1.11 6.319 1.661 9.48.361 2.077 11.206 2.255 13.054 2.249-1.361-7.157-2.72-14.312-4.082-21.47-.363-1.948-4.681-3.857-6.19-4.925zm-15.159-10.728c-3.687-2.57-7.42-5.08-11.147-7.592a9420.1 9420.1 0 0 0 4.146 22.775c.743 4.048 1.475 8.1 2.262 12.139.789 4.067 8.739 5.539 12.133 6.717-1.527-9.03-3.054-18.057-4.532-27.096-.542-3.305-.145-5.049-2.862-6.943zm-15.821-11.05c-3.564-2.488-7.126-4.976-10.691-7.467-4.93 16.959 3.32 34.3 17.265 44.26l-4.957-27.959c-.236-1.337-.451-8.016-1.617-8.834zm64.105 23.326c-.297-.195-1.695.165-2.025.196l-17.458 1.686 26.516 20.297c-2.442-4.234-3.076-9.761-4.37-14.415-.727-2.632-1.507-5.285-2.663-7.764zm-23.22-1.639l21.724-2.372c-.536-1.769-3.874-12.09-5.964-11.83-3.183.396-6.368.79-9.551 1.182-4.562.562-9.128 1.123-13.693 1.668-.902.109-6.38.042-6.925.776 2.629 2.032 5.26 4.064 7.889 6.093 1.465 1.128 4.553 4.699 6.52 4.483zm-13.729-15.142c9.072-1.227 18.154-2.405 27.236-3.583-2.123-2.9-5.848-10.073-9.969-9.639-4.095.432-8.183.915-12.271 1.386-7.666.888-15.331 1.787-22.993 2.689 3.491 2.834 6.979 5.671 10.518 8.446 2.604 2.042 4.158 1.151 7.479.701zm-32.936-20.645c3.422 2.681 6.846 5.358 10.267 8.039 1.12.878 7.57-.872 8.923-1.038 9.397-1.145 18.792-2.285 28.186-3.43-13.606-10.42-32.596-13.244-47.376-3.571z"/></g></svg>